<?xml version="1.0" encoding="UTF-8" standalone="no"?>
<!DOCTYPE svg PUBLIC "-//W3C//DTD SVG 1.1//EN"
 "http://www.w3.org/Graphics/SVG/1.1/DTD/svg11.dtd">
<!-- Generated by graphviz version 2.38.0 (20140413.2041)
 -->
<!-- Pages: 1 -->
<svg width="354pt" height="218pt"
 viewBox="0.00 0.00 353.54 218.00" xmlns="http://www.w3.org/2000/svg" xmlns:xlink="http://www.w3.org/1999/xlink">
<g id="graph0" class="graph" transform="scale(1 1) rotate(0) translate(4 214)">
<polygon fill="white" stroke="none" points="-4,4 -4,-214 349.543,-214 349.543,4 -4,4"/>
<!-- T0_init -->
<g id="node1" class="node"><title>T0_init</title>
<ellipse fill="none" stroke="black" cx="46.1459" cy="-192" rx="36.2938" ry="18"/>
<text text-anchor="middle" x="46.1459" y="-188.3" font-family="Times,serif" font-size="14.00">T0_init</text>
</g>
<!-- T0_init&#45;&gt;T0_init -->
<g id="edge1" class="edge"><title>T0_init&#45;&gt;T0_init</title>
<path fill="none" stroke="black" d="M79.075,-199.867C90.9011,-200.036 100.543,-197.414 100.543,-192 100.543,-188.278 95.9855,-185.875 89.2944,-184.792"/>
<polygon fill="black" stroke="black" points="89.2796,-181.284 79.075,-184.133 88.8289,-188.269 89.2796,-181.284"/>
<text text-anchor="middle" x="223.043" y="-188.3" font-family="Times,serif" font-size="14.00">((!(moveto_hotdogplate)) || (!(opengripper)))</text>
</g>
<!-- T0_S1 -->
<g id="node2" class="node"><title>T0_S1</title>
<ellipse fill="none" stroke="black" cx="46.1459" cy="-105" rx="34.394" ry="18"/>
<text text-anchor="middle" x="46.1459" y="-101.3" font-family="Times,serif" font-size="14.00">T0_S1</text>
</g>
<!-- T0_init&#45;&gt;T0_S1 -->
<g id="edge2" class="edge"><title>T0_init&#45;&gt;T0_S1</title>
<path fill="none" stroke="black" d="M46.1459,-173.799C46.1459,-162.163 46.1459,-146.548 46.1459,-133.237"/>
<polygon fill="black" stroke="black" points="49.646,-133.175 46.1459,-123.175 42.646,-133.175 49.646,-133.175"/>
<text text-anchor="middle" x="163.646" y="-144.8" font-family="Times,serif" font-size="14.00">((moveto_hotdogplate) &amp;&amp; (opengripper))</text>
</g>
<!-- T0_S1&#45;&gt;T0_S1 -->
<g id="edge3" class="edge"><title>T0_S1&#45;&gt;T0_S1</title>
<path fill="none" stroke="black" d="M77.375,-112.858C89.013,-113.115 98.5928,-110.496 98.5928,-105 98.5928,-101.221 94.0649,-98.8026 87.4531,-97.7436"/>
<polygon fill="black" stroke="black" points="87.5657,-94.2442 77.375,-97.1423 87.1487,-101.232 87.5657,-94.2442"/>
<text text-anchor="middle" x="143.593" y="-101.3" font-family="Times,serif" font-size="14.00">(!(closegripper))</text>
</g>
<!-- accept_all -->
<g id="node3" class="node"><title>accept_all</title>
<ellipse fill="none" stroke="black" cx="46.1459" cy="-18" rx="46.2923" ry="18"/>
<text text-anchor="middle" x="46.1459" y="-14.3" font-family="Times,serif" font-size="14.00">accept_all</text>
</g>
<!-- T0_S1&#45;&gt;accept_all -->
<g id="edge4" class="edge"><title>T0_S1&#45;&gt;accept_all</title>
<path fill="none" stroke="black" d="M46.1459,-86.799C46.1459,-75.1626 46.1459,-59.5479 46.1459,-46.2368"/>
<polygon fill="black" stroke="black" points="49.646,-46.1754 46.1459,-36.1754 42.646,-46.1755 49.646,-46.1754"/>
<text text-anchor="middle" x="84.1459" y="-57.8" font-family="Times,serif" font-size="14.00">(closegripper)</text>
</g>
<!-- accept_all&#45;&gt;accept_all -->
<g id="edge5" class="edge"><title>accept_all&#45;&gt;accept_all</title>
<path fill="none" stroke="black" d="M87.7904,-25.863C100.42,-25.6659 110.292,-23.0449 110.292,-18 110.292,-14.4528 105.411,-12.1039 98.1232,-10.9534"/>
<polygon fill="black" stroke="black" points="98.0351,-7.43564 87.7904,-10.137 97.4837,-14.4139 98.0351,-7.43564"/>
<text text-anchor="middle" x="118.292" y="-14.3" font-family="Times,serif" font-size="14.00">(1)</text>
</g>
</g>
</svg>
