<?xml version="1.0" encoding="UTF-8" standalone="no"?>
<!DOCTYPE svg PUBLIC "-//W3C//DTD SVG 1.1//EN"
 "http://www.w3.org/Graphics/SVG/1.1/DTD/svg11.dtd">
<!-- Generated by graphviz version 2.38.0 (20140413.2041)
 -->
<!-- Pages: 1 -->
<svg width="5835pt" height="1217pt"
 viewBox="0.00 0.00 5834.66 1217.00" xmlns="http://www.w3.org/2000/svg" xmlns:xlink="http://www.w3.org/1999/xlink">
<g id="graph0" class="graph" transform="scale(1 1) rotate(0) translate(4 1213)">
<polygon fill="white" stroke="none" points="-4,4 -4,-1213 5830.66,-1213 5830.66,4 -4,4"/>
<!-- T0_S13 -->
<g id="node1" class="node"><title>T0_S13</title>
<ellipse fill="none" stroke="black" cx="1547.35" cy="-930" rx="38.1938" ry="18"/>
<text text-anchor="middle" x="1547.35" y="-926.3" font-family="Times,serif" font-size="14.00">T0_S13</text>
</g>
<!-- T0_S13&#45;&gt;T0_S13 -->
<g id="edge1" class="edge"><title>T0_S13&#45;&gt;T0_S13</title>
<path fill="none" stroke="black" d="M1582.01,-937.873C1594.01,-937.956 1603.69,-935.332 1603.69,-930 1603.69,-926.334 1599.11,-923.948 1592.36,-922.842"/>
<polygon fill="black" stroke="black" points="1592.23,-919.325 1582.01,-922.127 1591.75,-926.308 1592.23,-919.325"/>
<text text-anchor="middle" x="1949.19" y="-926.3" font-family="Times,serif" font-size="14.00">((!(PP_cooked_dog_bun)) &amp;&amp; (!(PP_raw_dog_grill)) &amp;&amp; (!(apply_condiment)) &amp;&amp; (customer) &amp;&amp; (serve) &amp;&amp; (!(wait_2)))</text>
</g>
<!-- T0_S12 -->
<g id="node4" class="node"><title>T0_S12</title>
<ellipse fill="none" stroke="black" cx="200.347" cy="-822" rx="38.1938" ry="18"/>
<text text-anchor="middle" x="200.347" y="-818.3" font-family="Times,serif" font-size="14.00">T0_S12</text>
</g>
<!-- T0_S13&#45;&gt;T0_S12 -->
<g id="edge2" class="edge"><title>T0_S13&#45;&gt;T0_S12</title>
<path fill="none" stroke="black" d="M1517.71,-918.359C1509.59,-915.851 1500.71,-913.48 1492.35,-912 1414.13,-898.164 1208.16,-925.739 1135.35,-894 1114.31,-884.833 1119.43,-867.047 1098.35,-858 1020.28,-824.501 425.046,-822.669 249.148,-822.868"/>
<polygon fill="black" stroke="black" points="248.896,-819.368 238.901,-822.882 248.906,-826.368 248.896,-819.368"/>
<text text-anchor="middle" x="1487.35" y="-872.3" font-family="Times,serif" font-size="14.00">((!(PP_cooked_dog_bun)) &amp;&amp; (!(PP_raw_dog_grill)) &amp;&amp; (!(apply_condiment)) &amp;&amp; (!(customer)) &amp;&amp; (serve) &amp;&amp; (!(wait_2)))</text>
</g>
<!-- trap -->
<g id="node7" class="node"><title>trap</title>
<ellipse fill="none" stroke="black" cx="3078.35" cy="-18" rx="27" ry="18"/>
<text text-anchor="middle" x="3078.35" y="-14.3" font-family="Times,serif" font-size="14.00">trap</text>
</g>
<!-- T0_S13&#45;&gt;trap -->
<g id="edge3" class="edge"><title>T0_S13&#45;&gt;trap</title>
<path fill="none" stroke="black" d="M1520.47,-916.804C1515.22,-914.872 1509.69,-913.139 1504.35,-912 1325.96,-873.945 1274.89,-919.96 1094.35,-894 1028.19,-884.488 1014.6,-866.809 948.347,-858 926.45,-855.088 168.788,-855.795 153.347,-840 142.162,-828.559 144.837,-817.55 153.347,-804 204.482,-722.577 263.515,-752.978 357.347,-732 479.901,-704.6 507.244,-682.202 631.347,-663 762.472,-642.711 801.639,-681.003 929.347,-645 1071.34,-604.969 1080.18,-528.427 1222.35,-489 1259.55,-478.682 1542.76,-498.998 1569.35,-471 1580.36,-459.397 1578.8,-447.905 1569.35,-435 1553.64,-413.572 1528.69,-437.943 1512.35,-417 1483.69,-380.287 1494.62,-335.689 1536.35,-315 1588.57,-289.107 2544.49,-338.567 2585.35,-297 2596.56,-285.59 2596.22,-272.736 2585.35,-261 2549.6,-222.42 2385.1,-281.58 2349.35,-243 2339.62,-232.505 2304.69,-189.654 2356.35,-141 2391.9,-107.511 3201.16,-157.889 3235.35,-123 3278.73,-78.717 3171.72,-42.9777 3113.3,-27.4199"/>
<polygon fill="black" stroke="black" points="3113.9,-23.9609 3103.34,-24.8384 3112.14,-30.7368 3113.9,-23.9609"/>
<text text-anchor="middle" x="1605.85" y="-449.3" font-family="Times,serif" font-size="14.00">trap_guard</text>
</g>
<!-- T0_init -->
<g id="node2" class="node"><title>T0_init</title>
<ellipse fill="none" stroke="black" cx="757.347" cy="-1191" rx="36.2938" ry="18"/>
<text text-anchor="middle" x="757.347" y="-1187.3" font-family="Times,serif" font-size="14.00">T0_init</text>
</g>
<!-- T0_S11 -->
<g id="node6" class="node"><title>T0_S11</title>
<ellipse fill="none" stroke="black" cx="1210.35" cy="-1017" rx="38.1938" ry="18"/>
<text text-anchor="middle" x="1210.35" y="-1013.3" font-family="Times,serif" font-size="14.00">T0_S11</text>
</g>
<!-- T0_init&#45;&gt;T0_S11 -->
<g id="edge6" class="edge"><title>T0_init&#45;&gt;T0_S11</title>
<path fill="none" stroke="black" d="M785.342,-1179.37C863.246,-1149.79 1082.68,-1066.47 1171.9,-1032.6"/>
<polygon fill="black" stroke="black" points="1173.27,-1035.82 1181.37,-1029 1170.78,-1029.28 1173.27,-1035.82"/>
<text text-anchor="middle" x="1262.35" y="-1100.3" font-family="Times,serif" font-size="14.00">((apply_condiment) &amp;&amp; (!(customer)) &amp;&amp; (grill_on) &amp;&amp; (!(serve)) &amp;&amp; (!(wait_2)))</text>
</g>
<!-- T0_init&#45;&gt;trap -->
<g id="edge5" class="edge"><title>T0_init&#45;&gt;trap</title>
<path fill="none" stroke="black" d="M793.793,-1188.76C921.601,-1184.37 1361.34,-1169.16 1724.35,-1155 2413.8,-1128.1 4183.65,-1237.07 4824.35,-981 5313.51,-785.491 5550.1,-764.788 5792.35,-297 5989.79,84.2712 5283.68,-104.877 4857.35,-54 4679.02,-32.7189 3356.66,-21.2196 3115.9,-19.2915"/>
<polygon fill="black" stroke="black" points="3115.6,-15.7891 3105.58,-19.2094 3115.55,-22.7889 3115.6,-15.7891"/>
<text text-anchor="middle" x="5634.85" y="-579.8" font-family="Times,serif" font-size="14.00">trap_guard</text>
</g>
<!-- T0_S14 -->
<g id="node15" class="node"><title>T0_S14</title>
<ellipse fill="none" stroke="black" cx="38.3466" cy="-876" rx="38.1938" ry="18"/>
<text text-anchor="middle" x="38.3466" y="-872.3" font-family="Times,serif" font-size="14.00">T0_S14</text>
</g>
<!-- T0_init&#45;&gt;T0_S14 -->
<g id="edge7" class="edge"><title>T0_init&#45;&gt;T0_S14</title>
<path fill="none" stroke="black" d="M728.608,-1179.72C662.754,-1155.97 496.153,-1094.7 360.347,-1035 253.43,-987.996 130.336,-925.056 72.1601,-894.762"/>
<polygon fill="black" stroke="black" points="73.5464,-891.538 63.0616,-890.015 70.3081,-897.744 73.5464,-891.538"/>
<text text-anchor="middle" x="662.347" y="-1056.8" font-family="Times,serif" font-size="14.00">((apply_condiment) &amp;&amp; (customer) &amp;&amp; (grill_on) &amp;&amp; (!(serve)) &amp;&amp; (!(wait_2)))</text>
</g>
<!-- T0_S9 -->
<g id="node16" class="node"><title>T0_S9</title>
<ellipse fill="none" stroke="black" cx="1777.35" cy="-1104" rx="34.394" ry="18"/>
<text text-anchor="middle" x="1777.35" y="-1100.3" font-family="Times,serif" font-size="14.00">T0_S9</text>
</g>
<!-- T0_init&#45;&gt;T0_S9 -->
<g id="edge4" class="edge"><title>T0_init&#45;&gt;T0_S9</title>
<path fill="none" stroke="black" d="M793.051,-1187.02C948.123,-1174.1 1563.03,-1122.86 1733.39,-1108.66"/>
<polygon fill="black" stroke="black" points="1733.82,-1112.14 1743.5,-1107.82 1733.24,-1105.16 1733.82,-1112.14"/>
<text text-anchor="middle" x="1524.35" y="-1143.8" font-family="Times,serif" font-size="14.00">((!(apply_condiment)) &amp;&amp; (!(customer)) &amp;&amp; (grill_on) &amp;&amp; (!(serve)))</text>
</g>
<!-- T0_S5 -->
<g id="node3" class="node"><title>T0_S5</title>
<ellipse fill="none" stroke="black" cx="1306.35" cy="-540" rx="34.394" ry="18"/>
<text text-anchor="middle" x="1306.35" y="-536.3" font-family="Times,serif" font-size="14.00">T0_S5</text>
</g>
<!-- T0_S5&#45;&gt;T0_S5 -->
<g id="edge9" class="edge"><title>T0_S5&#45;&gt;T0_S5</title>
<path fill="none" stroke="black" d="M1337.58,-547.858C1349.21,-548.115 1358.79,-545.496 1358.79,-540 1358.79,-536.221 1354.27,-533.803 1347.65,-532.744"/>
<polygon fill="black" stroke="black" points="1347.77,-529.244 1337.58,-532.142 1347.35,-536.232 1347.77,-529.244"/>
<text text-anchor="middle" x="1704.29" y="-536.3" font-family="Times,serif" font-size="14.00">((!(PP_cooked_dog_bun)) &amp;&amp; (!(PP_raw_dog_grill)) &amp;&amp; (!(apply_condiment)) &amp;&amp; (customer) &amp;&amp; (serve) &amp;&amp; (!(wait_2)))</text>
</g>
<!-- T0_S4 -->
<g id="node5" class="node"><title>T0_S4</title>
<ellipse fill="none" stroke="black" cx="2044.35" cy="-453" rx="34.394" ry="18"/>
<text text-anchor="middle" x="2044.35" y="-449.3" font-family="Times,serif" font-size="14.00">T0_S4</text>
</g>
<!-- T0_S5&#45;&gt;T0_S4 -->
<g id="edge10" class="edge"><title>T0_S5&#45;&gt;T0_S4</title>
<path fill="none" stroke="black" d="M1340.81,-538.355C1507.48,-535.155 2222.47,-520.482 2238.35,-504 2242.97,-499.198 2242.62,-494.115 2238.35,-489 2219.66,-466.643 2140.01,-458.543 2088.76,-455.625"/>
<polygon fill="black" stroke="black" points="2088.77,-452.12 2078.6,-455.092 2088.4,-459.111 2088.77,-452.12"/>
<text text-anchor="middle" x="2593.35" y="-492.8" font-family="Times,serif" font-size="14.00">((!(PP_cooked_dog_bun)) &amp;&amp; (!(PP_raw_dog_grill)) &amp;&amp; (!(apply_condiment)) &amp;&amp; (!(customer)) &amp;&amp; (serve) &amp;&amp; (!(wait_2)))</text>
</g>
<!-- T0_S5&#45;&gt;trap -->
<g id="edge8" class="edge"><title>T0_S5&#45;&gt;trap</title>
<path fill="none" stroke="black" d="M1290.72,-523.416C1281.78,-512.65 1274.03,-498.596 1283.35,-489 1331.13,-439.801 1852.56,-520.199 1900.35,-471 1911.49,-459.523 1911.29,-446.67 1900.35,-435 1857.54,-389.362 1662.15,-462.638 1619.35,-417 1605.33,-402.057 1595.31,-356.189 1657.35,-315 1688.96,-294.011 2996.69,-324.009 3023.35,-297 3034.59,-285.612 3034.5,-272.47 3023.35,-261 2973.21,-209.445 2426.49,-294.555 2376.35,-243 2371.7,-238.221 2372.3,-233.298 2376.35,-228 2394.8,-203.837 2423.89,-234.163 2442.35,-210 2452.06,-197.285 2452.03,-186.734 2442.35,-174 2424.2,-150.142 2395.5,-179.858 2377.35,-156 2373.31,-150.694 2372.67,-145.747 2377.35,-141 2426.65,-90.9881 3592.04,-173.012 3641.35,-123 3706.1,-57.3162 3592.11,-62.0616 3556.35,-54 3472.53,-35.1074 3212.89,-23.9198 3115.64,-20.3003"/>
<polygon fill="black" stroke="black" points="3115.52,-16.7938 3105.4,-19.9251 3115.27,-23.7891 3115.52,-16.7938"/>
<text text-anchor="middle" x="3060.85" y="-275.3" font-family="Times,serif" font-size="14.00">trap_guard</text>
</g>
<!-- T0_S12&#45;&gt;T0_S13 -->
<g id="edge11" class="edge"><title>T0_S12&#45;&gt;T0_S13</title>
<path fill="none" stroke="black" d="M238.879,-823.457C484.79,-826.418 1824.88,-843.223 1839.35,-858 1850.54,-869.434 1849.97,-882.032 1839.35,-894 1823.48,-911.887 1674.46,-922.338 1595.67,-926.657"/>
<polygon fill="black" stroke="black" points="1595.3,-923.172 1585.5,-927.202 1595.67,-930.162 1595.3,-923.172"/>
<text text-anchor="middle" x="2289.35" y="-872.3" font-family="Times,serif" font-size="14.00">(((!(PP_cooked_dog_bun)) &amp;&amp; (!(PP_raw_dog_grill)) &amp;&amp; (!(apply_condiment)) &amp;&amp; (customer) &amp;&amp; (!(wait_2))) || ((customer) &amp;&amp; (!(serve)) &amp;&amp; (!(wait_2))))</text>
</g>
<!-- T0_S12&#45;&gt;T0_S12 -->
<g id="edge12" class="edge"><title>T0_S12&#45;&gt;T0_S12</title>
<path fill="none" stroke="black" d="M232.206,-832.036C245.459,-832.728 256.693,-829.383 256.693,-822 256.693,-816.636 250.763,-813.403 242.436,-812.302"/>
<polygon fill="black" stroke="black" points="242.316,-808.796 232.206,-811.964 242.085,-815.792 242.316,-808.796"/>
<text text-anchor="middle" x="712.193" y="-818.3" font-family="Times,serif" font-size="14.00">(((!(PP_cooked_dog_bun)) &amp;&amp; (!(PP_raw_dog_grill)) &amp;&amp; (!(apply_condiment)) &amp;&amp; (!(customer)) &amp;&amp; (!(wait_2))) || ((!(customer)) &amp;&amp; (!(serve)) &amp;&amp; (!(wait_2))))</text>
</g>
<!-- T0_S12&#45;&gt;trap -->
<g id="edge15" class="edge"><title>T0_S12&#45;&gt;trap</title>
<path fill="none" stroke="black" d="M224.417,-807.958C255.853,-791.562 313.052,-763.886 365.347,-750 434.083,-731.749 455.703,-750.598 524.347,-732 597.521,-712.174 606.54,-680.323 680.347,-663 767.62,-642.516 1000.46,-679.135 1083.35,-645 1178.77,-605.702 1159.75,-527.885 1255.35,-489 1306.84,-468.054 1716.75,-511.01 1755.35,-471 1766.45,-459.485 1766.21,-446.747 1755.35,-435 1720.54,-397.361 1560.16,-454.639 1525.35,-417 1512.05,-402.619 1500.41,-355.872 1559.35,-315 1587.86,-295.227 2783.99,-321.711 2808.35,-297 2819.58,-285.605 2819.43,-272.538 2808.35,-261 2773.68,-224.916 2393.02,-279.084 2358.35,-243 2348.17,-232.404 2359.43,-224.665 2360.35,-210 2360.47,-208.087 2359.99,-142.357 2361.35,-141 2403.69,-98.5606 3398.31,-165.745 3440.35,-123 3451.57,-111.592 3450.22,-99.594 3440.35,-87 3400.68,-36.3777 3199.86,-23.325 3115.62,-20.0556"/>
<polygon fill="black" stroke="black" points="3115.59,-16.5524 3105.47,-19.6876 3115.34,-23.5478 3115.59,-16.5524"/>
<text text-anchor="middle" x="1554.85" y="-405.8" font-family="Times,serif" font-size="14.00">trap_guard</text>
</g>
<!-- T0_S7 -->
<g id="node12" class="node"><title>T0_S7</title>
<ellipse fill="none" stroke="black" cx="1354.35" cy="-627" rx="34.394" ry="18"/>
<text text-anchor="middle" x="1354.35" y="-623.3" font-family="Times,serif" font-size="14.00">T0_S7</text>
</g>
<!-- T0_S12&#45;&gt;T0_S7 -->
<g id="edge14" class="edge"><title>T0_S12&#45;&gt;T0_S7</title>
<path fill="none" stroke="black" d="M224.819,-807.948C258.349,-790.845 320.963,-761.659 378.347,-750 401.3,-745.337 1204.96,-748.738 1221.35,-732 1232.54,-720.566 1232.47,-707.503 1221.35,-696 1180.16,-653.398 729.534,-720.602 688.347,-678 683.713,-673.207 683.702,-667.783 688.347,-663 712.003,-638.636 1265.85,-650.565 1299.35,-645 1305.22,-644.024 1311.34,-642.582 1317.27,-640.943"/>
<polygon fill="black" stroke="black" points="1318.41,-644.254 1327,-638.047 1316.42,-637.545 1318.41,-644.254"/>
<text text-anchor="middle" x="1422.35" y="-710.3" font-family="Times,serif" font-size="14.00">((!(apply_condiment)) &amp;&amp; (!(customer)) &amp;&amp; (!(serve)) &amp;&amp; (wait_2))</text>
</g>
<!-- T0_S8 -->
<g id="node17" class="node"><title>T0_S8</title>
<ellipse fill="none" stroke="black" cx="1715.35" cy="-714" rx="34.394" ry="18"/>
<text text-anchor="middle" x="1715.35" y="-710.3" font-family="Times,serif" font-size="14.00">T0_S8</text>
</g>
<!-- T0_S12&#45;&gt;T0_S8 -->
<g id="edge13" class="edge"><title>T0_S12&#45;&gt;T0_S8</title>
<path fill="none" stroke="black" d="M234.36,-813.57C306.278,-798.251 479.254,-763.465 626.347,-750 854.981,-729.071 1432.55,-767.688 1659.35,-732 1665.39,-731.049 1671.69,-729.605 1677.79,-727.952"/>
<polygon fill="black" stroke="black" points="1679.17,-731.193 1687.79,-725.024 1677.21,-724.476 1679.17,-731.193"/>
<text text-anchor="middle" x="812.847" y="-764.3" font-family="Times,serif" font-size="14.00">((!(apply_condiment)) &amp;&amp; (customer) &amp;&amp; (!(serve)) &amp;&amp; (wait_2))</text>
</g>
<!-- T0_S4&#45;&gt;T0_S5 -->
<g id="edge19" class="edge"><title>T0_S4&#45;&gt;T0_S5</title>
<path fill="none" stroke="black" d="M2017.73,-464.521C2009.99,-467.128 2001.44,-469.58 1993.35,-471 1954.98,-477.733 1319.54,-461.102 1292.35,-489 1285.97,-495.542 1286.84,-504.74 1290.21,-513.467"/>
<polygon fill="black" stroke="black" points="1287.12,-515.125 1294.63,-522.602 1293.43,-512.076 1287.12,-515.125"/>
<text text-anchor="middle" x="1763.35" y="-492.8" font-family="Times,serif" font-size="14.00">(((!(PP_cooked_dog_bun)) &amp;&amp; (!(PP_raw_dog_grill)) &amp;&amp; (!(apply_condiment)) &amp;&amp; (customer) &amp;&amp; (!(wait_2))) || ((!(apply_condiment)) &amp;&amp; (customer) &amp;&amp; (!(serve))))</text>
</g>
<!-- T0_S4&#45;&gt;T0_S4 -->
<g id="edge20" class="edge"><title>T0_S4&#45;&gt;T0_S4</title>
<path fill="none" stroke="black" d="M2075.58,-460.858C2087.21,-461.115 2096.79,-458.496 2096.79,-453 2096.79,-449.221 2092.27,-446.803 2085.65,-445.744"/>
<polygon fill="black" stroke="black" points="2085.77,-442.244 2075.58,-445.142 2085.35,-449.232 2085.77,-442.244"/>
<text text-anchor="middle" x="2581.29" y="-449.3" font-family="Times,serif" font-size="14.00">(((!(PP_cooked_dog_bun)) &amp;&amp; (!(PP_raw_dog_grill)) &amp;&amp; (!(apply_condiment)) &amp;&amp; (!(customer)) &amp;&amp; (!(wait_2))) || ((!(apply_condiment)) &amp;&amp; (!(customer)) &amp;&amp; (!(serve))))</text>
</g>
<!-- T0_S4&#45;&gt;trap -->
<g id="edge18" class="edge"><title>T0_S4&#45;&gt;trap</title>
<path fill="none" stroke="black" d="M2017.4,-441.732C2009.73,-439.161 2001.29,-436.664 1993.35,-435 1950.32,-425.989 1825.98,-449.468 1796.35,-417 1791.85,-412.076 1792.14,-407.17 1796.35,-402 1821.28,-371.381 1858.41,-414.619 1883.35,-384 1893.45,-371.593 1893.89,-360.038 1883.35,-348 1843.47,-302.457 1788.22,-375.543 1748.35,-330 1743.96,-324.984 1743.66,-319.743 1748.35,-315 1776.51,-286.478 3163.18,-325.522 3191.35,-297 3202.59,-285.616 3202.52,-272.453 3191.35,-261 3163.17,-232.12 2493.52,-271.88 2465.35,-243 2435.19,-212.085 2483.23,-238.474 2519.35,-210 2547.72,-187.628 2530.89,-158.777 2562.35,-141 2591.03,-124.791 3725.23,-146.474 3748.35,-123 3773.54,-97.4222 3739.94,-66.6746 3706.35,-54 3651.19,-33.1866 3242.19,-22.5818 3115.59,-19.7734"/>
<polygon fill="black" stroke="black" points="3115.33,-16.267 3105.25,-19.5477 3115.18,-23.2653 3115.33,-16.267"/>
<text text-anchor="middle" x="2494.85" y="-231.8" font-family="Times,serif" font-size="14.00">trap_guard</text>
</g>
<!-- T0_S2 -->
<g id="node9" class="node"><title>T0_S2</title>
<ellipse fill="none" stroke="black" cx="3286.35" cy="-279" rx="34.394" ry="18"/>
<text text-anchor="middle" x="3286.35" y="-275.3" font-family="Times,serif" font-size="14.00">T0_S2</text>
</g>
<!-- T0_S4&#45;&gt;T0_S2 -->
<g id="edge16" class="edge"><title>T0_S4&#45;&gt;T0_S2</title>
<path fill="none" stroke="black" d="M2017.4,-441.752C2009.73,-439.181 2001.29,-436.68 1993.35,-435 1952.07,-426.273 1832.73,-448.215 1804.35,-417 1799.86,-412.068 1799.93,-406.998 1804.35,-402 1847.03,-353.647 1905.66,-432.353 1948.35,-384 1958.94,-372.005 1959.12,-359.83 1948.35,-348 1919.49,-316.315 1785.2,-361.685 1756.35,-330 1751.86,-325.071 1751.66,-319.743 1756.35,-315 1785.22,-285.771 3194.83,-303.828 3235.35,-297 3240.16,-296.19 3245.13,-295.002 3249.99,-293.624"/>
<polygon fill="black" stroke="black" points="3251.24,-296.903 3259.75,-290.591 3249.16,-290.218 3251.24,-296.903"/>
<text text-anchor="middle" x="2142.85" y="-362.3" font-family="Times,serif" font-size="14.00">((apply_condiment) &amp;&amp; (customer) &amp;&amp; (!(serve)) &amp;&amp; (!(wait_2)))</text>
</g>
<!-- T0_S1 -->
<g id="node10" class="node"><title>T0_S1</title>
<ellipse fill="none" stroke="black" cx="2467.35" cy="-366" rx="34.394" ry="18"/>
<text text-anchor="middle" x="2467.35" y="-362.3" font-family="Times,serif" font-size="14.00">T0_S1</text>
</g>
<!-- T0_S4&#45;&gt;T0_S1 -->
<g id="edge17" class="edge"><title>T0_S4&#45;&gt;T0_S1</title>
<path fill="none" stroke="black" d="M2017.13,-441.705C2009.52,-439.166 2001.19,-436.692 1993.35,-435 1916.4,-418.406 1764.6,-458.557 1819.35,-402 1840.69,-379.953 2340.83,-387.183 2371.35,-384 2389.33,-382.124 2409.02,-378.854 2425.87,-375.679"/>
<polygon fill="black" stroke="black" points="2426.79,-379.065 2435.94,-373.728 2425.46,-372.192 2426.79,-379.065"/>
<text text-anchor="middle" x="2012.35" y="-405.8" font-family="Times,serif" font-size="14.00">((apply_condiment) &amp;&amp; (!(customer)) &amp;&amp; (!(serve)) &amp;&amp; (!(wait_2)))</text>
</g>
<!-- T0_S11&#45;&gt;T0_S13 -->
<g id="edge21" class="edge"><title>T0_S11&#45;&gt;T0_S13</title>
<path fill="none" stroke="black" d="M1248.75,-1015.73C1465.89,-1014.12 2530.94,-1005.02 2554.35,-981 2559,-976.225 2558.98,-970.795 2554.35,-966 2537.51,-948.569 1794.88,-935.084 1595.94,-931.779"/>
<polygon fill="black" stroke="black" points="1595.85,-928.278 1585.79,-931.612 1595.73,-935.277 1595.85,-928.278"/>
<text text-anchor="middle" x="2973.35" y="-969.8" font-family="Times,serif" font-size="14.00">(((PP_raw_dog_grill) &amp;&amp; (!(apply_condiment)) &amp;&amp; (customer) &amp;&amp; (!(serve))) || ((PP_raw_dog_grill) &amp;&amp; (customer) &amp;&amp; (!(serve)) &amp;&amp; (!(wait_2))))</text>
</g>
<!-- T0_S11&#45;&gt;T0_S12 -->
<g id="edge22" class="edge"><title>T0_S11&#45;&gt;T0_S12</title>
<path fill="none" stroke="black" d="M1248.73,-1015.71C1463.41,-1014.01 2506.41,-1004.55 2529.35,-981 2534,-976.224 2534.04,-970.736 2529.35,-966 2492.44,-928.738 678.255,-985.262 641.347,-948 541.286,-846.981 1046.51,-960.864 948.347,-858 924.168,-832.663 410.562,-825.181 248.73,-823.448"/>
<polygon fill="black" stroke="black" points="248.625,-819.947 238.589,-823.342 248.551,-826.947 248.625,-819.947"/>
<text text-anchor="middle" x="1070.85" y="-926.3" font-family="Times,serif" font-size="14.00">(((PP_raw_dog_grill) &amp;&amp; (!(apply_condiment)) &amp;&amp; (!(customer)) &amp;&amp; (!(serve))) || ((PP_raw_dog_grill) &amp;&amp; (!(customer)) &amp;&amp; (!(serve)) &amp;&amp; (!(wait_2))))</text>
</g>
<!-- T0_S11&#45;&gt;T0_S11 -->
<g id="edge23" class="edge"><title>T0_S11&#45;&gt;T0_S11</title>
<path fill="none" stroke="black" d="M1245.01,-1024.87C1257.01,-1024.96 1266.69,-1022.33 1266.69,-1017 1266.69,-1013.33 1262.11,-1010.95 1255.36,-1009.84"/>
<polygon fill="black" stroke="black" points="1255.23,-1006.33 1245.01,-1009.13 1254.75,-1013.31 1255.23,-1006.33"/>
<text text-anchor="middle" x="2034.69" y="-1013.3" font-family="Times,serif" font-size="14.00">(((!(PP_cooked_dog_bun)) &amp;&amp; (!(PP_raw_dog_grill)) &amp;&amp; (!(apply_condiment)) &amp;&amp; (!(customer)) &amp;&amp; (!(wait_2))) || ((!(PP_raw_dog_grill)) &amp;&amp; (!(apply_condiment)) &amp;&amp; (!(customer)) &amp;&amp; (!(serve))) || ((!(PP_raw_dog_grill)) &amp;&amp; (!(customer)) &amp;&amp; (!(serve)) &amp;&amp; (!(wait_2))))</text>
</g>
<!-- T0_S11&#45;&gt;trap -->
<g id="edge24" class="edge"><title>T0_S11&#45;&gt;trap</title>
<path fill="none" stroke="black" d="M1248.91,-1015.68C1459.94,-1013.82 2466.18,-1003.78 2488.35,-981 2493,-976.222 2493.04,-970.737 2488.35,-966 2451.89,-929.19 659.803,-984.81 623.347,-948 612.088,-936.632 612.641,-923.891 623.347,-912 648.912,-883.602 768.781,-922.398 794.347,-894 805.052,-882.109 805.503,-869.469 794.347,-858 743.735,-805.974 191.959,-892.026 141.347,-840 130.19,-828.531 138.524,-819.749 141.347,-804 145.862,-778.808 142.867,-767.706 161.347,-750 388.782,-532.091 1205.92,-395.832 1510.35,-315 1873.79,-218.498 1968.74,-210.268 2338.35,-141 2607.73,-90.5144 2934.41,-40.5708 3042.04,-24.4093"/>
<polygon fill="black" stroke="black" points="3042.69,-27.8521 3052.06,-22.9084 3041.65,-20.9294 3042.69,-27.8521"/>
<text text-anchor="middle" x="803.847" y="-492.8" font-family="Times,serif" font-size="14.00">trap_guard</text>
</g>
<!-- T0_S11&#45;&gt;T0_S14 -->
<g id="edge25" class="edge"><title>T0_S11&#45;&gt;T0_S14</title>
<path fill="none" stroke="black" d="M1174.6,-1010.36C1148.1,-1006.43 1111.06,-1001.47 1078.35,-999 1056.29,-997.335 297.808,-996.815 282.347,-981 277.686,-976.233 278.045,-971.093 282.347,-966 313.178,-929.492 357.515,-984.508 388.347,-948 398.67,-935.776 399.083,-923.863 388.347,-912 368.495,-890.065 178.151,-881.283 86.8016,-878.31"/>
<polygon fill="black" stroke="black" points="86.8016,-874.809 76.6964,-877.992 86.5812,-881.805 86.8016,-874.809"/>
<text text-anchor="middle" x="1029.85" y="-969.8" font-family="Times,serif" font-size="14.00">(((!(PP_cooked_dog_bun)) &amp;&amp; (!(PP_raw_dog_grill)) &amp;&amp; (!(apply_condiment)) &amp;&amp; (customer) &amp;&amp; (!(wait_2))) || ((!(PP_raw_dog_grill)) &amp;&amp; (!(apply_condiment)) &amp;&amp; (customer) &amp;&amp; (!(serve))) || ((!(PP_raw_dog_grill)) &amp;&amp; (customer) &amp;&amp; (!(serve)) &amp;&amp; (!(wait_2))))</text>
</g>
<!-- trap&#45;&gt;trap -->
<g id="edge26" class="edge"><title>trap&#45;&gt;trap</title>
<path fill="none" stroke="black" d="M3102.88,-25.752C3113.85,-26.4902 3123.35,-23.9062 3123.35,-18 3123.35,-14.0317 3119.06,-11.5632 3112.92,-10.5944"/>
<polygon fill="black" stroke="black" points="3112.99,-7.09491 3102.88,-10.248 3112.75,-14.0908 3112.99,-7.09491"/>
<text text-anchor="middle" x="3131.35" y="-14.3" font-family="Times,serif" font-size="14.00">(1)</text>
</g>
<!-- T0_S3 -->
<g id="node8" class="node"><title>T0_S3</title>
<ellipse fill="none" stroke="black" cx="1778.35" cy="-768" rx="34.394" ry="18"/>
<text text-anchor="middle" x="1778.35" y="-764.3" font-family="Times,serif" font-size="14.00">T0_S3</text>
</g>
<!-- T0_S3&#45;&gt;trap -->
<g id="edge30" class="edge"><title>T0_S3&#45;&gt;trap</title>
<path fill="none" stroke="black" d="M1812.61,-765.172C1878.03,-761.738 2025.3,-754.284 2149.35,-750 2321.29,-744.062 2752.6,-753.101 2923.35,-732 2995.25,-723.114 3010.49,-705.319 3082.35,-696 3110.46,-692.354 3572.66,-698.398 3592.35,-678 3596.98,-673.204 3596.38,-668.311 3592.35,-663 3578.89,-645.259 3421.3,-612.732 3399.35,-609 3368.5,-603.756 3139.75,-613.819 3118.35,-591 3113.79,-586.138 3113.74,-580.822 3118.35,-576 3148.07,-544.862 3475.62,-589.138 3505.35,-558 3585.44,-474.1 3281.93,-450.871 3206.35,-435 3151.79,-423.546 3046.3,-441.779 3085.35,-402 3123.1,-363.536 4004.56,-402.04 4055.35,-384 4079.81,-375.311 4077.39,-358.013 4101.35,-348 4159.23,-323.804 4180.19,-343.985 4241.35,-330 4261.9,-325.3 4265.56,-318.507 4286.35,-315 4325.63,-308.372 5692.36,-325.345 5720.35,-297 5731.59,-285.616 5731.54,-272.436 5720.35,-261 5688.17,-228.114 4924.53,-275.886 4892.35,-243 4887.68,-238.235 4891.12,-234.552 4892.35,-228 4893.93,-219.564 4897.76,-218.436 4899.35,-210 4902.3,-194.274 4906.15,-188.48 4899.35,-174 4873.56,-119.154 4850.69,-109.33 4794.35,-87 4633.37,-23.2002 3351.51,-19.195 3115.59,-19.0001"/>
<polygon fill="black" stroke="black" points="3115.47,-15.5001 3105.46,-18.9936 3115.46,-22.5001 3115.47,-15.5001"/>
<text text-anchor="middle" x="3114.85" y="-405.8" font-family="Times,serif" font-size="14.00">trap_guard</text>
</g>
<!-- T0_S3&#45;&gt;T0_S3 -->
<g id="edge27" class="edge"><title>T0_S3&#45;&gt;T0_S3</title>
<path fill="none" stroke="black" d="M1807.21,-777.986C1819.88,-778.87 1830.79,-775.541 1830.79,-768 1830.79,-762.58 1825.16,-759.336 1817.28,-758.268"/>
<polygon fill="black" stroke="black" points="1817.29,-754.767 1807.21,-758.014 1817.11,-761.765 1817.29,-754.767"/>
<text text-anchor="middle" x="1985.79" y="-764.3" font-family="Times,serif" font-size="14.00">((!(apply_condiment)) &amp;&amp; (!(customer)) &amp;&amp; (!(serve)))</text>
</g>
<!-- T0_S3&#45;&gt;T0_S2 -->
<g id="edge28" class="edge"><title>T0_S3&#45;&gt;T0_S2</title>
<path fill="none" stroke="black" d="M1812.61,-765.313C1878.05,-762.118 2025.33,-755.051 2149.35,-750 2373.75,-740.86 2431.84,-762.527 2654.35,-732 2721.84,-722.74 2735.8,-704.894 2803.35,-696 2843.35,-690.733 3501.17,-706.88 3529.35,-678 3534,-673.228 3533.89,-667.881 3529.35,-663 3510.45,-642.691 3307.95,-647.77 3280.35,-645 3155.5,-632.472 3125.29,-620.509 3000.35,-609 2964.66,-605.713 2702.97,-617.036 2678.35,-591 2673.77,-586.156 2673.74,-580.821 2678.35,-576 2708.31,-544.627 3037.33,-588.323 3068.35,-558 3107.49,-519.741 3112.2,-474.535 3074.35,-435 3058.46,-418.411 2684.22,-419.086 2661.35,-417 2555.44,-407.34 2527.19,-411.087 2424.35,-384 2382.29,-372.922 2375.93,-356.86 2333.35,-348 2304.18,-341.931 1818.06,-351.419 1797.35,-330 1792.71,-325.207 1792.66,-319.744 1797.35,-315 1824.91,-287.087 3170.38,-301.502 3209.35,-297 3221.44,-295.603 3234.43,-293.124 3246.23,-290.484"/>
<polygon fill="black" stroke="black" points="3247.29,-293.829 3256.23,-288.146 3245.7,-287.013 3247.29,-293.829"/>
<text text-anchor="middle" x="3279.85" y="-536.3" font-family="Times,serif" font-size="14.00">((apply_condiment) &amp;&amp; (customer) &amp;&amp; (!(serve)) &amp;&amp; (!(wait_2)))</text>
</g>
<!-- T0_S3&#45;&gt;T0_S1 -->
<g id="edge29" class="edge"><title>T0_S3&#45;&gt;T0_S1</title>
<path fill="none" stroke="black" d="M1812.61,-765.221C1878.04,-761.869 2025.31,-754.548 2149.35,-750 2439.93,-739.345 2513.95,-760.298 2803.35,-732 2898.9,-722.656 2920.81,-705.561 3016.35,-696 3047.37,-692.895 3555.65,-700.4 3577.35,-678 3581.98,-673.211 3581.62,-668.118 3577.35,-663 3571.97,-656.562 3288.69,-609.879 3280.35,-609 3247.51,-605.537 2709.34,-614.696 2686.35,-591 2681.7,-586.215 2681.69,-580.767 2686.35,-576 2717.5,-544.135 3457.19,-589.865 3488.35,-558 3499.53,-546.56 3498.32,-534.513 3488.35,-522 3481.6,-513.532 3119.07,-436.51 3108.35,-435 2963.34,-414.585 2924.95,-432.607 2779.35,-417 2682.09,-406.576 2568.97,-386.419 2509.25,-375.142"/>
<polygon fill="black" stroke="black" points="2509.57,-371.639 2499.09,-373.211 2508.26,-378.516 2509.57,-371.639"/>
<text text-anchor="middle" x="2879.35" y="-579.8" font-family="Times,serif" font-size="14.00">((apply_condiment) &amp;&amp; (!(customer)) &amp;&amp; (!(serve)) &amp;&amp; (!(wait_2)))</text>
</g>
<!-- T0_S2&#45;&gt;trap -->
<g id="edge35" class="edge"><title>T0_S2&#45;&gt;trap</title>
<path fill="none" stroke="black" d="M3259.73,-267.479C3251.99,-264.872 3243.44,-262.419 3235.35,-261 3196.92,-254.258 2560.58,-270.938 2533.35,-243 2514.61,-223.772 2557.2,-210.212 2557.35,-210 2575.75,-183.751 2552.73,-160.274 2578.35,-141 2632.2,-100.476 3744.05,-171.009 3791.35,-123 3814.82,-99.1797 3791.57,-68.3066 3761.35,-54 3702.96,-26.3655 3250.34,-20.422 3115.89,-19.2609"/>
<polygon fill="black" stroke="black" points="3115.7,-15.7594 3105.68,-19.1767 3115.65,-22.7591 3115.7,-15.7594"/>
<text text-anchor="middle" x="2607.85" y="-144.8" font-family="Times,serif" font-size="14.00">trap_guard</text>
</g>
<!-- T0_S2&#45;&gt;T0_S2 -->
<g id="edge31" class="edge"><title>T0_S2&#45;&gt;T0_S2</title>
<path fill="none" stroke="black" d="M3317.58,-286.858C3329.21,-287.115 3338.79,-284.496 3338.79,-279 3338.79,-275.221 3334.27,-272.803 3327.65,-271.744"/>
<polygon fill="black" stroke="black" points="3327.77,-268.244 3317.58,-271.142 3327.35,-275.232 3327.77,-268.244"/>
<text text-anchor="middle" x="3732.79" y="-275.3" font-family="Times,serif" font-size="14.00">((!(PP_cooked_dog_bun)) &amp;&amp; (!(PP_raw_dog_grill)) &amp;&amp; (!(apply_condiment)) &amp;&amp; (customer) &amp;&amp; (!(grill_off)) &amp;&amp; (serve) &amp;&amp; (!(wait_2)))</text>
</g>
<!-- T0_S2&#45;&gt;T0_S1 -->
<g id="edge32" class="edge"><title>T0_S2&#45;&gt;T0_S1</title>
<path fill="none" stroke="black" d="M3295.69,-296.476C3300.5,-307.37 3303.77,-321.213 3295.35,-330 3268.07,-358.455 2680.58,-363.841 2512.12,-364.802"/>
<polygon fill="black" stroke="black" points="2511.85,-361.303 2501.87,-364.858 2511.89,-368.303 2511.85,-361.303"/>
<text text-anchor="middle" x="3701.35" y="-318.8" font-family="Times,serif" font-size="14.00">((!(PP_cooked_dog_bun)) &amp;&amp; (!(PP_raw_dog_grill)) &amp;&amp; (!(apply_condiment)) &amp;&amp; (!(customer)) &amp;&amp; (!(grill_off)) &amp;&amp; (serve) &amp;&amp; (!(wait_2)))</text>
</g>
<!-- accept_S16 -->
<g id="node13" class="node"><title>accept_S16</title>
<ellipse fill="none" stroke="black" cx="3994.35" cy="-105" rx="51.1914" ry="18"/>
<text text-anchor="middle" x="3994.35" y="-101.3" font-family="Times,serif" font-size="14.00">accept_S16</text>
</g>
<!-- T0_S2&#45;&gt;accept_S16 -->
<g id="edge33" class="edge"><title>T0_S2&#45;&gt;accept_S16</title>
<path fill="none" stroke="black" d="M3259.73,-267.482C3251.99,-264.874 3243.44,-262.421 3235.35,-261 3197.58,-254.365 2572.11,-270.466 2545.35,-243 2518.33,-215.27 2572.57,-240.03 2595.35,-210 2613.92,-185.5 2577.98,-162.096 2600.35,-141 2626.72,-116.126 3869.28,-126.665 3905.35,-123 3917.45,-121.77 3930.37,-119.732 3942.49,-117.485"/>
<polygon fill="black" stroke="black" points="3943.31,-120.893 3952.46,-115.563 3941.98,-114.02 3943.31,-120.893"/>
<text text-anchor="middle" x="2987.85" y="-188.3" font-family="Times,serif" font-size="14.00">((!(PP_cooked_dog_bun)) &amp;&amp; (!(PP_raw_dog_grill)) &amp;&amp; (!(apply_condiment)) &amp;&amp; (customer) &amp;&amp; (grill_off) &amp;&amp; (serve) &amp;&amp; (!(wait_2)))</text>
</g>
<!-- accept_S15 -->
<g id="node14" class="node"><title>accept_S15</title>
<ellipse fill="none" stroke="black" cx="3509.35" cy="-192" rx="51.1914" ry="18"/>
<text text-anchor="middle" x="3509.35" y="-188.3" font-family="Times,serif" font-size="14.00">accept_S15</text>
</g>
<!-- T0_S2&#45;&gt;accept_S15 -->
<g id="edge34" class="edge"><title>T0_S2&#45;&gt;accept_S15</title>
<path fill="none" stroke="black" d="M3259.73,-267.483C3251.99,-264.876 3243.44,-262.422 3235.35,-261 3198.02,-254.436 2579.79,-270.152 2553.35,-243 2548.7,-238.224 2548.68,-232.764 2553.35,-228 2569.93,-211.066 3382.75,-212.185 3406.35,-210 3422.41,-208.513 3439.75,-206.005 3455.54,-203.365"/>
<polygon fill="black" stroke="black" points="3456.41,-206.768 3465.67,-201.622 3455.22,-199.87 3456.41,-206.768"/>
<text text-anchor="middle" x="2947.35" y="-231.8" font-family="Times,serif" font-size="14.00">((!(PP_cooked_dog_bun)) &amp;&amp; (!(PP_raw_dog_grill)) &amp;&amp; (!(apply_condiment)) &amp;&amp; (!(customer)) &amp;&amp; (grill_off) &amp;&amp; (serve) &amp;&amp; (!(wait_2)))</text>
</g>
<!-- T0_S1&#45;&gt;trap -->
<g id="edge40" class="edge"><title>T0_S1&#45;&gt;trap</title>
<path fill="none" stroke="black" d="M2501.98,-364.929C2731.7,-364.377 4031.93,-359.937 4205.35,-330 4226.12,-326.414 4229.56,-318.506 4250.35,-315 4290.12,-308.292 5674,-325.698 5702.35,-297 5713.59,-285.616 5713.54,-272.434 5702.35,-261 5669.74,-227.682 4903.74,-266.276 4863.35,-243 4832.24,-225.076 4840.64,-204.276 4821.35,-174 4796.37,-134.81 4803.86,-109.774 4763.35,-87 4724.86,-65.364 4013.46,-55.7831 3969.35,-54 3638.27,-40.6173 3237.96,-25.1461 3115.63,-20.434"/>
<polygon fill="black" stroke="black" points="3115.45,-16.9246 3105.32,-20.0371 3115.18,-23.9194 3115.45,-16.9246"/>
<text text-anchor="middle" x="4865.85" y="-188.3" font-family="Times,serif" font-size="14.00">trap_guard</text>
</g>
<!-- T0_S1&#45;&gt;T0_S2 -->
<g id="edge36" class="edge"><title>T0_S1&#45;&gt;T0_S2</title>
<path fill="none" stroke="black" d="M2440.73,-354.499C2432.99,-351.892 2424.43,-349.435 2416.35,-348 2382.91,-342.067 1829,-354.364 1805.35,-330 1800.7,-325.217 1800.66,-319.744 1805.35,-315 1833.26,-286.734 3196.18,-303.61 3235.35,-297 3240.16,-296.189 3245.13,-295 3249.99,-293.623"/>
<polygon fill="black" stroke="black" points="3251.24,-296.901 3259.75,-290.589 3249.16,-290.216 3251.24,-296.901"/>
<text text-anchor="middle" x="2548.35" y="-318.8" font-family="Times,serif" font-size="14.00">(((!(PP_cooked_dog_bun)) &amp;&amp; (!(PP_raw_dog_grill)) &amp;&amp; (!(apply_condiment)) &amp;&amp; (customer) &amp;&amp; (!(grill_off)) &amp;&amp; (!(wait_2))) || ((!(apply_condiment)) &amp;&amp; (customer) &amp;&amp; (!(grill_off)) &amp;&amp; (!(serve))) || ((customer) &amp;&amp; (!(grill_off)) &amp;&amp; (!(serve)) &amp;&amp; (!(wait_2))))</text>
</g>
<!-- T0_S1&#45;&gt;T0_S1 -->
<g id="edge37" class="edge"><title>T0_S1&#45;&gt;T0_S1</title>
<path fill="none" stroke="black" d="M2498.58,-373.858C2510.21,-374.115 2519.79,-371.496 2519.79,-366 2519.79,-362.221 2515.27,-359.803 2508.65,-358.744"/>
<polygon fill="black" stroke="black" points="2508.77,-355.244 2498.58,-358.142 2508.35,-362.232 2508.77,-355.244"/>
<text text-anchor="middle" x="3283.29" y="-362.3" font-family="Times,serif" font-size="14.00">(((!(PP_cooked_dog_bun)) &amp;&amp; (!(PP_raw_dog_grill)) &amp;&amp; (!(apply_condiment)) &amp;&amp; (!(customer)) &amp;&amp; (!(grill_off)) &amp;&amp; (!(wait_2))) || ((!(apply_condiment)) &amp;&amp; (!(customer)) &amp;&amp; (!(grill_off)) &amp;&amp; (!(serve))) || ((!(customer)) &amp;&amp; (!(grill_off)) &amp;&amp; (!(serve)) &amp;&amp; (!(wait_2))))</text>
</g>
<!-- T0_S1&#45;&gt;accept_S16 -->
<g id="edge38" class="edge"><title>T0_S1&#45;&gt;accept_S16</title>
<path fill="none" stroke="black" d="M2502.09,-365.049C2732.34,-365.279 4031.11,-365.014 4106.35,-330 4124.05,-321.761 4128.46,-315.27 4135.35,-297 4140.99,-282.028 4146.53,-272.444 4135.35,-261 4105.25,-230.195 3390.44,-273.805 3360.35,-243 3355.69,-238.232 3357.71,-234.124 3360.35,-228 3364.94,-217.314 3374.75,-220.686 3379.35,-210 3385.67,-195.302 3390.52,-185.452 3379.35,-174 3350.86,-144.806 2673.83,-185.194 2645.35,-156 2640.69,-151.229 2640.67,-145.748 2645.35,-141 2669.92,-116.073 3870.52,-126.547 3905.35,-123 3917.45,-121.767 3930.36,-119.727 3942.49,-117.481"/>
<polygon fill="black" stroke="black" points="3943.31,-120.889 3952.46,-115.559 3941.98,-114.015 3943.31,-120.889"/>
<text text-anchor="middle" x="4083.35" y="-231.8" font-family="Times,serif" font-size="14.00">(((!(PP_cooked_dog_bun)) &amp;&amp; (!(PP_raw_dog_grill)) &amp;&amp; (!(apply_condiment)) &amp;&amp; (customer) &amp;&amp; (grill_off) &amp;&amp; (!(wait_2))) || ((!(apply_condiment)) &amp;&amp; (customer) &amp;&amp; (grill_off) &amp;&amp; (!(serve))) || ((customer) &amp;&amp; (grill_off) &amp;&amp; (!(serve)) &amp;&amp; (!(wait_2))))</text>
</g>
<!-- T0_S1&#45;&gt;accept_S15 -->
<g id="edge39" class="edge"><title>T0_S1&#45;&gt;accept_S15</title>
<path fill="none" stroke="black" d="M2502.04,-364.805C2742.18,-363.39 4148.94,-354.086 4185.35,-330 4213.39,-311.451 4188.4,-279.688 4216.35,-261 4271.24,-224.295 4764.37,-290.392 4810.35,-243 4814.99,-238.215 4815,-232.777 4810.35,-228 4788.47,-205.531 3825.76,-195.708 3570.78,-193.498"/>
<polygon fill="black" stroke="black" points="3570.62,-189.997 3560.59,-193.41 3570.56,-196.996 3570.62,-189.997"/>
<text text-anchor="middle" x="4959.35" y="-275.3" font-family="Times,serif" font-size="14.00">(((!(PP_cooked_dog_bun)) &amp;&amp; (!(PP_raw_dog_grill)) &amp;&amp; (!(apply_condiment)) &amp;&amp; (!(customer)) &amp;&amp; (grill_off) &amp;&amp; (!(wait_2))) || ((!(apply_condiment)) &amp;&amp; (!(customer)) &amp;&amp; (grill_off) &amp;&amp; (!(serve))) || ((!(customer)) &amp;&amp; (grill_off) &amp;&amp; (!(serve)) &amp;&amp; (!(wait_2))))</text>
</g>
<!-- T0_S10 -->
<g id="node11" class="node"><title>T0_S10</title>
<ellipse fill="none" stroke="black" cx="3752.35" cy="-1017" rx="38.1938" ry="18"/>
<text text-anchor="middle" x="3752.35" y="-1013.3" font-family="Times,serif" font-size="14.00">T0_S10</text>
</g>
<!-- T0_S10&#45;&gt;T0_S13 -->
<g id="edge41" class="edge"><title>T0_S10&#45;&gt;T0_S13</title>
<path fill="none" stroke="black" d="M3791.09,-1015.88C3849.65,-1014.78 3956.42,-1008.88 3980.35,-981 3984.69,-975.941 3985.03,-970.74 3980.35,-966 3964.42,-949.893 2372,-948.365 2349.35,-948 2063.56,-943.394 1720.55,-935.247 1595.74,-932.197"/>
<polygon fill="black" stroke="black" points="1595.82,-928.698 1585.74,-931.952 1595.65,-935.696 1595.82,-928.698"/>
<text text-anchor="middle" x="4169.85" y="-969.8" font-family="Times,serif" font-size="14.00">((apply_condiment) &amp;&amp; (customer) &amp;&amp; (!(serve)) &amp;&amp; (!(wait_2)))</text>
</g>
<!-- T0_S10&#45;&gt;T0_S12 -->
<g id="edge42" class="edge"><title>T0_S10&#45;&gt;T0_S12</title>
<path fill="none" stroke="black" d="M3790.8,-1015.22C3921.38,-1012.4 4340.75,-1001.76 4360.35,-981 4364.92,-976.152 4365.04,-970.735 4360.35,-966 4321.63,-926.931 2419.06,-987.069 2380.35,-948 2254.83,-821.336 2896.58,-984.948 2771.35,-858 2768.47,-855.081 602.118,-828 248.797,-823.602"/>
<polygon fill="black" stroke="black" points="248.683,-820.101 238.64,-823.476 248.596,-827.1 248.683,-820.101"/>
<text text-anchor="middle" x="2573.35" y="-926.3" font-family="Times,serif" font-size="14.00">((apply_condiment) &amp;&amp; (!(customer)) &amp;&amp; (!(serve)) &amp;&amp; (!(wait_2)))</text>
</g>
<!-- T0_S10&#45;&gt;trap -->
<g id="edge45" class="edge"><title>T0_S10&#45;&gt;trap</title>
<path fill="none" stroke="black" d="M3790.62,-1015.07C3977.5,-1010.5 4785.45,-990.205 4794.35,-981 4798.98,-976.207 4799.03,-970.745 4794.35,-966 4767.38,-938.676 3442.52,-971.745 3412.35,-948 3379.9,-922.466 3421.04,-884.46 3389.35,-858 3367.63,-839.867 3163.45,-843.288 3135.35,-840 3036.94,-828.486 3013.99,-813.308 2915.35,-804 2896.18,-802.191 2235.79,-799.792 2222.35,-786 2211.18,-774.54 2211.15,-761.431 2222.35,-750 2239.2,-732.791 3065.74,-736.801 3089.35,-732 3131.56,-723.414 3137.22,-705.004 3179.35,-696 3203.43,-690.852 3605.29,-695.767 3622.35,-678 3658.36,-640.495 3667.42,-651.8 3555.35,-609 3482.16,-581.05 3150.44,-632.847 3204.35,-576 3230.3,-548.63 3517.39,-585.37 3543.35,-558 3561.19,-539.183 3556.69,-469.564 3531.35,-435 3520.3,-419.93 3503.34,-432.791 3493.35,-417 3489.78,-411.367 3488.7,-406.78 3493.35,-402 3517.98,-376.654 4095.97,-395.651 4129.35,-384 4154.52,-375.21 4152.65,-358.066 4177.35,-348 4234.22,-324.818 4254.45,-343.577 4314.35,-330 4335.32,-325.246 4339.13,-318.512 4360.35,-315 4398.61,-308.666 5729.1,-324.599 5756.35,-297 5767.59,-285.614 5767.53,-272.441 5756.35,-261 5725.54,-229.488 4999.99,-267.48 4963.35,-243 4922.15,-215.474 4942.72,-184.138 4918.35,-141 4903.91,-115.45 4904.68,-103.4 4880.35,-87 4826.61,-50.7923 4802.64,-62.0595 4738.35,-54 4572.58,-33.2196 3345.8,-21.3739 3115.54,-19.3216"/>
<polygon fill="black" stroke="black" points="3115.37,-15.82 3105.34,-19.2313 3115.31,-22.8197 3115.37,-15.82"/>
<text text-anchor="middle" x="3582.85" y="-492.8" font-family="Times,serif" font-size="14.00">trap_guard</text>
</g>
<!-- T0_S10&#45;&gt;T0_S10 -->
<g id="edge43" class="edge"><title>T0_S10&#45;&gt;T0_S10</title>
<path fill="none" stroke="black" d="M3787.01,-1024.87C3799.01,-1024.96 3808.69,-1022.33 3808.69,-1017 3808.69,-1013.33 3804.11,-1010.95 3797.36,-1009.84"/>
<polygon fill="black" stroke="black" points="3797.23,-1006.33 3787.01,-1009.13 3796.75,-1013.31 3797.23,-1006.33"/>
<text text-anchor="middle" x="4008.69" y="-1013.3" font-family="Times,serif" font-size="14.00">((!(apply_condiment)) &amp;&amp; (!(customer)) &amp;&amp; (!(serve)) &amp;&amp; (!(wait_2)))</text>
</g>
<!-- T0_S6 -->
<g id="node18" class="node"><title>T0_S6</title>
<ellipse fill="none" stroke="black" cx="2809.35" cy="-930" rx="34.394" ry="18"/>
<text text-anchor="middle" x="2809.35" y="-926.3" font-family="Times,serif" font-size="14.00">T0_S6</text>
</g>
<!-- T0_S10&#45;&gt;T0_S6 -->
<g id="edge44" class="edge"><title>T0_S10&#45;&gt;T0_S6</title>
<path fill="none" stroke="black" d="M3791.01,-1015.37C3927.57,-1012.94 4380.27,-1003.24 4401.35,-981 4405.93,-976.161 4406.02,-970.755 4401.35,-966 4381.21,-945.511 3396.06,-948.687 3367.35,-948 3176.13,-943.423 2948.12,-935.8 2853.68,-932.547"/>
<polygon fill="black" stroke="black" points="2853.75,-929.048 2843.63,-932.2 2853.5,-936.043 2853.75,-929.048"/>
<text text-anchor="middle" x="4597.35" y="-969.8" font-family="Times,serif" font-size="14.00">((!(apply_condiment)) &amp;&amp; (!(customer)) &amp;&amp; (!(serve)) &amp;&amp; (wait_2))</text>
</g>
<!-- T0_S7&#45;&gt;T0_S5 -->
<g id="edge49" class="edge"><title>T0_S7&#45;&gt;T0_S5</title>
<path fill="none" stroke="black" d="M1340.19,-610.339C1335.39,-604.535 1330.26,-597.723 1326.35,-591 1322.11,-583.73 1318.38,-575.392 1315.32,-567.635"/>
<polygon fill="black" stroke="black" points="1318.6,-566.395 1311.83,-558.245 1312.04,-568.838 1318.6,-566.395"/>
<text text-anchor="middle" x="1758.85" y="-579.8" font-family="Times,serif" font-size="14.00">(((PP_cooked_dog_bun) &amp;&amp; (!(apply_condiment)) &amp;&amp; (customer) &amp;&amp; (!(serve))) || ((PP_cooked_dog_bun) &amp;&amp; (customer) &amp;&amp; (!(serve)) &amp;&amp; (!(wait_2))))</text>
</g>
<!-- T0_S7&#45;&gt;T0_S4 -->
<g id="edge50" class="edge"><title>T0_S7&#45;&gt;T0_S4</title>
<path fill="none" stroke="black" d="M1388.73,-625.875C1542.78,-625.15 2163.14,-620.407 2191.35,-591 2212.8,-568.634 2163.37,-564.882 2159.35,-558 2151.27,-544.189 2148.16,-533.442 2159.35,-522 2190.03,-490.606 2918.66,-535.394 2949.35,-504 2954.01,-499.233 2953.97,-493.804 2949.35,-489 2919.24,-457.702 2266.82,-454.358 2088.85,-454.029"/>
<polygon fill="black" stroke="black" points="2088.79,-450.529 2078.78,-454.012 2088.78,-457.529 2088.79,-450.529"/>
<text text-anchor="middle" x="2605.35" y="-536.3" font-family="Times,serif" font-size="14.00">(((PP_cooked_dog_bun) &amp;&amp; (!(apply_condiment)) &amp;&amp; (!(customer)) &amp;&amp; (!(serve))) || ((PP_cooked_dog_bun) &amp;&amp; (!(customer)) &amp;&amp; (!(serve)) &amp;&amp; (!(wait_2))))</text>
</g>
<!-- T0_S7&#45;&gt;trap -->
<g id="edge48" class="edge"><title>T0_S7&#45;&gt;trap</title>
<path fill="none" stroke="black" d="M1328.57,-614.936C1306.73,-603.998 1276.87,-584.977 1263.35,-558 1249.43,-530.237 1249.45,-507.556 1274.35,-489 1324.71,-451.468 1795.65,-516.115 1839.35,-471 1850.48,-459.508 1850.22,-446.741 1839.35,-435 1804.07,-396.891 1647.76,-448.334 1606.35,-417 1568.46,-388.333 1540.97,-348.817 1574.35,-315 1627.62,-261.021 2886.07,-350.979 2939.35,-297 2950.59,-285.612 2950.48,-272.491 2939.35,-261 2895.18,-215.414 2412.52,-288.586 2368.35,-243 2346.18,-220.122 2396.72,-219.351 2402.35,-210 2410.6,-196.293 2410.51,-187.758 2402.35,-174 2393.82,-159.634 2377.87,-170.366 2369.35,-156 2365.94,-150.267 2364.67,-145.75 2369.35,-141 2415.82,-93.8163 3514.87,-170.184 3561.35,-123 3572.57,-111.601 3570.97,-99.7791 3561.35,-87 3529.35,-44.5304 3498.59,-63.8927 3446.35,-54 3326.64,-31.3329 3182.1,-23.0368 3115.39,-20.2628"/>
<polygon fill="black" stroke="black" points="3115.5,-16.7645 3105.37,-19.8636 3115.22,-23.7589 3115.5,-16.7645"/>
<text text-anchor="middle" x="1603.85" y="-318.8" font-family="Times,serif" font-size="14.00">trap_guard</text>
</g>
<!-- T0_S7&#45;&gt;T0_S7 -->
<g id="edge47" class="edge"><title>T0_S7&#45;&gt;T0_S7</title>
<path fill="none" stroke="black" d="M1385.58,-634.858C1397.21,-635.115 1406.79,-632.496 1406.79,-627 1406.79,-623.221 1402.27,-620.803 1395.65,-619.744"/>
<polygon fill="black" stroke="black" points="1395.77,-616.244 1385.58,-619.142 1395.35,-623.232 1395.77,-616.244"/>
<text text-anchor="middle" x="2191.29" y="-623.3" font-family="Times,serif" font-size="14.00">(((!(PP_cooked_dog_bun)) &amp;&amp; (!(PP_raw_dog_grill)) &amp;&amp; (!(apply_condiment)) &amp;&amp; (!(customer)) &amp;&amp; (!(wait_2))) || ((!(PP_cooked_dog_bun)) &amp;&amp; (!(apply_condiment)) &amp;&amp; (!(customer)) &amp;&amp; (!(serve))) || ((!(PP_cooked_dog_bun)) &amp;&amp; (!(customer)) &amp;&amp; (!(serve)) &amp;&amp; (!(wait_2))))</text>
</g>
<!-- T0_S7&#45;&gt;T0_S8 -->
<g id="edge46" class="edge"><title>T0_S7&#45;&gt;T0_S8</title>
<path fill="none" stroke="black" d="M1372.33,-642.409C1388.17,-654.224 1412.4,-670.222 1436.35,-678 1530.92,-708.717 1561.66,-677.452 1659.35,-696 1665.29,-697.129 1671.51,-698.654 1677.54,-700.328"/>
<polygon fill="black" stroke="black" points="1676.86,-703.776 1687.44,-703.244 1678.84,-697.062 1676.86,-703.776"/>
<text text-anchor="middle" x="2200.35" y="-666.8" font-family="Times,serif" font-size="14.00">(((!(PP_cooked_dog_bun)) &amp;&amp; (!(PP_raw_dog_grill)) &amp;&amp; (!(apply_condiment)) &amp;&amp; (customer) &amp;&amp; (!(wait_2))) || ((!(PP_cooked_dog_bun)) &amp;&amp; (!(apply_condiment)) &amp;&amp; (customer) &amp;&amp; (!(serve))) || ((!(PP_cooked_dog_bun)) &amp;&amp; (customer) &amp;&amp; (!(serve)) &amp;&amp; (!(wait_2))))</text>
</g>
<!-- accept_S16&#45;&gt;trap -->
<g id="edge53" class="edge"><title>accept_S16&#45;&gt;trap</title>
<path fill="none" stroke="black" d="M3964.68,-90.2738C3937.23,-78.3001 3894.96,-61.6782 3856.35,-54 3712.06,-25.3102 3250.93,-20.1055 3115.86,-19.1897"/>
<polygon fill="black" stroke="black" points="3115.64,-15.6883 3105.61,-19.1243 3115.59,-22.6881 3115.64,-15.6883"/>
<text text-anchor="middle" x="3935.85" y="-57.8" font-family="Times,serif" font-size="14.00">trap_guard</text>
</g>
<!-- accept_S16&#45;&gt;accept_S16 -->
<g id="edge51" class="edge"><title>accept_S16&#45;&gt;accept_S16</title>
<path fill="none" stroke="black" d="M4040.69,-112.836C4053.7,-112.493 4063.69,-109.881 4063.69,-105 4063.69,-101.492 4058.53,-99.1558 4050.8,-97.9919"/>
<polygon fill="black" stroke="black" points="4050.94,-94.4921 4040.69,-97.1639 4050.37,-101.469 4050.94,-94.4921"/>
<text text-anchor="middle" x="4409.19" y="-101.3" font-family="Times,serif" font-size="14.00">((!(PP_cooked_dog_bun)) &amp;&amp; (!(PP_raw_dog_grill)) &amp;&amp; (!(apply_condiment)) &amp;&amp; (customer) &amp;&amp; (serve) &amp;&amp; (!(wait_2)))</text>
</g>
<!-- accept_S16&#45;&gt;accept_S15 -->
<g id="edge52" class="edge"><title>accept_S16&#45;&gt;accept_S15</title>
<path fill="none" stroke="black" d="M3962.88,-119.407C3934.31,-130.995 3890.75,-147.222 3851.35,-156 3754.65,-177.539 3639.58,-185.861 3570.6,-189.05"/>
<polygon fill="black" stroke="black" points="3570.19,-185.565 3560.35,-189.502 3570.5,-192.558 3570.19,-185.565"/>
<text text-anchor="middle" x="4255.35" y="-144.8" font-family="Times,serif" font-size="14.00">((!(PP_cooked_dog_bun)) &amp;&amp; (!(PP_raw_dog_grill)) &amp;&amp; (!(apply_condiment)) &amp;&amp; (!(customer)) &amp;&amp; (serve) &amp;&amp; (!(wait_2)))</text>
</g>
<!-- accept_S15&#45;&gt;trap -->
<g id="edge56" class="edge"><title>accept_S15&#45;&gt;trap</title>
<path fill="none" stroke="black" d="M3465.67,-182.403C3447.41,-179.172 3425.92,-175.838 3406.35,-174 3385.29,-172.023 2660.12,-171.127 2645.35,-156 2640.69,-151.231 2640.67,-145.75 2645.35,-141 2691.63,-94.0127 3786.07,-169.987 3832.35,-123 3855.03,-99.9698 3837.64,-69.6386 3809.35,-54 3748.45,-20.3399 3256.59,-18.6575 3115.84,-18.8732"/>
<polygon fill="black" stroke="black" points="3115.57,-15.3736 3105.57,-18.8934 3115.58,-22.3736 3115.57,-15.3736"/>
<text text-anchor="middle" x="3871.85" y="-101.3" font-family="Times,serif" font-size="14.00">trap_guard</text>
</g>
<!-- accept_S15&#45;&gt;accept_S16 -->
<g id="edge54" class="edge"><title>accept_S15&#45;&gt;accept_S16</title>
<path fill="none" stroke="black" d="M3471.84,-179.605C3462.91,-177.335 3453.36,-175.263 3444.35,-174 3422.58,-170.949 2668.71,-171.717 2653.35,-156 2648.69,-151.233 2648.67,-145.747 2653.35,-141 2678.22,-115.778 3893.24,-127.701 3928.35,-123 3934.28,-122.205 3940.45,-121.06 3946.53,-119.735"/>
<polygon fill="black" stroke="black" points="3947.68,-123.06 3956.61,-117.363 3946.07,-116.246 3947.68,-123.06"/>
<text text-anchor="middle" x="3250.35" y="-144.8" font-family="Times,serif" font-size="14.00">(((!(PP_cooked_dog_bun)) &amp;&amp; (!(PP_raw_dog_grill)) &amp;&amp; (!(apply_condiment)) &amp;&amp; (customer) &amp;&amp; (!(wait_2))) || ((!(apply_condiment)) &amp;&amp; (customer) &amp;&amp; (!(serve))) || ((customer) &amp;&amp; (!(serve)) &amp;&amp; (!(wait_2))))</text>
</g>
<!-- accept_S15&#45;&gt;accept_S15 -->
<g id="edge55" class="edge"><title>accept_S15&#45;&gt;accept_S15</title>
<path fill="none" stroke="black" d="M3555.69,-199.836C3568.7,-199.493 3578.69,-196.881 3578.69,-192 3578.69,-188.492 3573.53,-186.156 3565.8,-184.992"/>
<polygon fill="black" stroke="black" points="3565.94,-181.492 3555.69,-184.164 3565.37,-188.469 3565.94,-181.492"/>
<text text-anchor="middle" x="4195.69" y="-188.3" font-family="Times,serif" font-size="14.00">(((!(PP_cooked_dog_bun)) &amp;&amp; (!(PP_raw_dog_grill)) &amp;&amp; (!(apply_condiment)) &amp;&amp; (!(customer)) &amp;&amp; (!(wait_2))) || ((!(apply_condiment)) &amp;&amp; (!(customer)) &amp;&amp; (!(serve))) || ((!(customer)) &amp;&amp; (!(serve)) &amp;&amp; (!(wait_2))))</text>
</g>
<!-- T0_S14&#45;&gt;T0_S11 -->
<g id="edge57" class="edge"><title>T0_S14&#45;&gt;T0_S11</title>
<path fill="none" stroke="black" d="M76.3263,-879.003C143.173,-882.889 286.073,-892.806 405.347,-912 476.454,-923.443 491.838,-939.419 563.347,-948 596.832,-952.018 1753.68,-941.976 1777.35,-966 1782.03,-970.749 1781.91,-976.143 1777.35,-981 1759.71,-999.758 1393.5,-1011.2 1259.18,-1014.78"/>
<polygon fill="black" stroke="black" points="1258.69,-1011.3 1248.79,-1015.06 1258.88,-1018.29 1258.69,-1011.3"/>
<text text-anchor="middle" x="2132.35" y="-969.8" font-family="Times,serif" font-size="14.00">((!(PP_cooked_dog_bun)) &amp;&amp; (!(PP_raw_dog_grill)) &amp;&amp; (!(apply_condiment)) &amp;&amp; (!(customer)) &amp;&amp; (serve) &amp;&amp; (!(wait_2)))</text>
</g>
<!-- T0_S14&#45;&gt;trap -->
<g id="edge58" class="edge"><title>T0_S14&#45;&gt;trap</title>
<path fill="none" stroke="black" d="M38.2451,-857.619C38.9167,-831.873 43.4211,-783.087 66.3466,-750 106.575,-691.941 135.044,-692.23 199.347,-663 1035.27,-283.011 1295.16,-306.539 2198.35,-141 2523.44,-81.4163 2920.86,-36.1027 3041.76,-22.9166"/>
<polygon fill="black" stroke="black" points="3042.37,-26.3702 3051.94,-21.8109 3041.62,-19.4111 3042.37,-26.3702"/>
<text text-anchor="middle" x="792.847" y="-449.3" font-family="Times,serif" font-size="14.00">trap_guard</text>
</g>
<!-- T0_S14&#45;&gt;T0_S14 -->
<g id="edge59" class="edge"><title>T0_S14&#45;&gt;T0_S14</title>
<path fill="none" stroke="black" d="M70.2056,-886.036C83.4587,-886.728 94.6932,-883.383 94.6932,-876 94.6932,-870.636 88.7626,-867.403 80.4361,-866.302"/>
<polygon fill="black" stroke="black" points="80.3157,-862.796 70.2056,-865.964 80.0846,-869.792 80.3157,-862.796"/>
<text text-anchor="middle" x="440.193" y="-872.3" font-family="Times,serif" font-size="14.00">((!(PP_cooked_dog_bun)) &amp;&amp; (!(PP_raw_dog_grill)) &amp;&amp; (!(apply_condiment)) &amp;&amp; (customer) &amp;&amp; (serve) &amp;&amp; (!(wait_2)))</text>
</g>
<!-- T0_S9&#45;&gt;T0_S13 -->
<g id="edge60" class="edge"><title>T0_S9&#45;&gt;T0_S13</title>
<path fill="none" stroke="black" d="M1811.74,-1102.02C1968.21,-1097.34 2613.71,-1075.89 2811.35,-1035 2858.01,-1025.34 2865.55,-1008 2912.35,-999 2938.61,-993.952 3374.79,-1000.26 3393.35,-981 3397.97,-976.199 3398.02,-970.753 3393.35,-966 3372.25,-944.549 2340.43,-948.585 2310.35,-948 2040.35,-942.749 1716.65,-935.084 1595.89,-932.177"/>
<polygon fill="black" stroke="black" points="1595.93,-928.677 1585.85,-931.935 1595.76,-935.675 1595.93,-928.677"/>
<text text-anchor="middle" x="3167.35" y="-1013.3" font-family="Times,serif" font-size="14.00">((PP_raw_dog_grill) &amp;&amp; (apply_condiment) &amp;&amp; (customer) &amp;&amp; (!(serve)) &amp;&amp; (!(wait_2)))</text>
</g>
<!-- T0_S9&#45;&gt;T0_S12 -->
<g id="edge61" class="edge"><title>T0_S9&#45;&gt;T0_S12</title>
<path fill="none" stroke="black" d="M1811.89,-1101.85C1926.78,-1097.97 2306.59,-1084.65 2620.35,-1068 2723.53,-1062.52 2749.14,-1057.96 2852.35,-1053 2883.99,-1051.48 3400.3,-1057.75 3422.35,-1035 3433.48,-1023.51 3425.53,-1014.68 3422.35,-999 3419.17,-983.388 3421.56,-974.908 3408.35,-966 3360.02,-933.409 2400.21,-989.567 2359.35,-948 2238.89,-825.459 2856.01,-980.339 2735.35,-858 2732.51,-855.123 598.741,-828.035 248.67,-823.61"/>
<polygon fill="black" stroke="black" points="248.646,-820.109 238.603,-823.483 248.558,-827.109 248.646,-820.109"/>
<text text-anchor="middle" x="3680.85" y="-969.8" font-family="Times,serif" font-size="14.00">((PP_raw_dog_grill) &amp;&amp; (apply_condiment) &amp;&amp; (!(customer)) &amp;&amp; (!(serve)) &amp;&amp; (!(wait_2)))</text>
</g>
<!-- T0_S9&#45;&gt;T0_S11 -->
<g id="edge62" class="edge"><title>T0_S9&#45;&gt;T0_S11</title>
<path fill="none" stroke="black" d="M1744.41,-1098.06C1648.25,-1083.65 1367.65,-1041.58 1256.48,-1024.92"/>
<polygon fill="black" stroke="black" points="1256.67,-1021.41 1246.27,-1023.38 1255.64,-1028.33 1256.67,-1021.41"/>
<text text-anchor="middle" x="1795.85" y="-1056.8" font-family="Times,serif" font-size="14.00">((!(PP_raw_dog_grill)) &amp;&amp; (apply_condiment) &amp;&amp; (!(customer)) &amp;&amp; (!(serve)) &amp;&amp; (!(wait_2)))</text>
</g>
<!-- T0_S9&#45;&gt;trap -->
<g id="edge64" class="edge"><title>T0_S9&#45;&gt;trap</title>
<path fill="none" stroke="black" d="M1811.81,-1103.18C2029.54,-1104.09 3236.73,-1105.63 4217.35,-1035 4233.82,-1033.81 4798.21,-993.195 4809.35,-981 4813.84,-976.076 4814.03,-970.745 4809.35,-966 4782.91,-939.207 3486.23,-968.002 3454.35,-948 3416.46,-924.236 3446.34,-883.123 3409.35,-858 3370.78,-831.812 3246.42,-847.102 3200.35,-840 3127.88,-828.829 3112.13,-812.889 3039.35,-804 3017.83,-801.373 2274.49,-801.5 2259.35,-786 2248.16,-774.557 2248.15,-761.428 2259.35,-750 2276.63,-732.359 3124.37,-737.918 3148.35,-732 3183.08,-723.428 3185.71,-704.958 3220.35,-696 3265.89,-684.221 3610.8,-711.964 3643.35,-678 3664.4,-656.028 3656.83,-636.119 3613.35,-609 3547.44,-567.89 3212.11,-632.565 3265.35,-576 3288.01,-551.926 3532.2,-571.57 3562.35,-558 3593.3,-544.068 3603.36,-535.358 3616.35,-504 3633.99,-461.397 3565.26,-435.117 3597.35,-402 3619.39,-379.246 4137.45,-394.492 4167.35,-384 4192.51,-375.169 4190.66,-358.078 4215.35,-348 4271.8,-324.958 4291.85,-343.321 4351.35,-330 4372.74,-325.209 4376.7,-318.515 4398.35,-315 4436.08,-308.872 5747.49,-324.206 5774.35,-297 5785.59,-285.613 5785.53,-272.444 5774.35,-261 5744.29,-230.235 5037.44,-264.766 5000.35,-243 4930.92,-202.267 4971.17,-137.326 4908.35,-87 4871.16,-57.2097 4853.33,-61.9002 4806.35,-54 4634.49,-25.1057 3351.62,-19.8304 3115.6,-19.1014"/>
<polygon fill="black" stroke="black" points="3115.48,-15.6011 3105.47,-19.071 3115.46,-22.6011 3115.48,-15.6011"/>
<text text-anchor="middle" x="3636.85" y="-536.3" font-family="Times,serif" font-size="14.00">trap_guard</text>
</g>
<!-- T0_S9&#45;&gt;T0_S10 -->
<g id="edge63" class="edge"><title>T0_S9&#45;&gt;T0_S10</title>
<path fill="none" stroke="black" d="M1811.7,-1102.16C1945.27,-1098.85 2442.87,-1085.96 2852.35,-1068 3118.27,-1056.34 3184.58,-1049.81 3450.35,-1035 3539.87,-1030.01 3644.32,-1024.11 3703.96,-1020.74"/>
<polygon fill="black" stroke="black" points="3704.42,-1024.22 3714.21,-1020.16 3704.03,-1017.23 3704.42,-1024.22"/>
<text text-anchor="middle" x="3365.35" y="-1056.8" font-family="Times,serif" font-size="14.00">((PP_raw_dog_grill) &amp;&amp; (!(apply_condiment)) &amp;&amp; (!(customer)) &amp;&amp; (!(serve)))</text>
</g>
<!-- T0_S9&#45;&gt;T0_S14 -->
<g id="edge65" class="edge"><title>T0_S9&#45;&gt;T0_S14</title>
<path fill="none" stroke="black" d="M1743.23,-1100.88C1690.95,-1097.65 1587.88,-1091.28 1500.35,-1086 1404.8,-1080.23 735.564,-1044.83 640.347,-1035 619.902,-1032.89 290.348,-993.899 274.347,-981 248.833,-960.433 273.668,-932.804 248.347,-912 224.268,-892.216 140.79,-883.309 86.616,-879.534"/>
<polygon fill="black" stroke="black" points="86.7398,-876.035 76.5305,-878.867 86.2775,-883.02 86.7398,-876.035"/>
<text text-anchor="middle" x="901.847" y="-1013.3" font-family="Times,serif" font-size="14.00">((!(PP_raw_dog_grill)) &amp;&amp; (apply_condiment) &amp;&amp; (customer) &amp;&amp; (!(serve)) &amp;&amp; (!(wait_2)))</text>
</g>
<!-- T0_S9&#45;&gt;T0_S9 -->
<g id="edge66" class="edge"><title>T0_S9&#45;&gt;T0_S9</title>
<path fill="none" stroke="black" d="M1808.58,-1111.86C1820.21,-1112.12 1829.79,-1109.5 1829.79,-1104 1829.79,-1100.22 1825.27,-1097.8 1818.65,-1096.74"/>
<polygon fill="black" stroke="black" points="1818.77,-1093.24 1808.58,-1096.14 1818.35,-1100.23 1818.77,-1093.24"/>
<text text-anchor="middle" x="2060.29" y="-1100.3" font-family="Times,serif" font-size="14.00">((!(PP_raw_dog_grill)) &amp;&amp; (!(apply_condiment)) &amp;&amp; (!(customer)) &amp;&amp; (!(serve)))</text>
</g>
<!-- T0_S8&#45;&gt;trap -->
<g id="edge69" class="edge"><title>T0_S8&#45;&gt;trap</title>
<path fill="none" stroke="black" d="M1683.95,-706.166C1665.28,-702.421 1641.08,-698.121 1619.35,-696 1593.6,-693.487 706.459,-696.466 688.347,-678 683.678,-673.241 683.72,-667.8 688.347,-663 726.235,-623.697 1131.69,-671.637 1179.35,-645 1252.08,-604.341 1210.5,-529.466 1283.35,-489 1311.24,-473.507 1835.14,-493.911 1857.35,-471 1916.89,-409.565 1798.8,-425.127 1788.35,-417 1748.79,-386.246 1705.16,-350.662 1740.35,-315 1793.19,-261.453 3041.51,-350.547 3094.35,-297 3105.58,-285.611 3105.5,-272.471 3094.35,-261 3044.52,-209.759 2501.17,-294.241 2451.35,-243 2446.7,-238.22 2448.73,-234.13 2451.35,-228 2473.34,-176.549 2490.58,-162.246 2542.35,-141 2571.18,-129.164 3642.48,-145.217 3664.35,-123 3691.28,-95.6301 3648.85,-65.914 3612.35,-54 3519.81,-23.7977 3220.96,-19.5888 3115.56,-19.0557"/>
<polygon fill="black" stroke="black" points="3115.42,-15.5552 3105.41,-19.0129 3115.39,-22.5551 3115.42,-15.5552"/>
<text text-anchor="middle" x="1778.85" y="-362.3" font-family="Times,serif" font-size="14.00">trap_guard</text>
</g>
<!-- T0_S8&#45;&gt;T0_S7 -->
<g id="edge68" class="edge"><title>T0_S8&#45;&gt;T0_S7</title>
<path fill="none" stroke="black" d="M1687.79,-702.984C1678.84,-700.179 1668.78,-697.491 1659.35,-696 1632.92,-691.824 715.087,-697.094 696.347,-678 691.677,-673.242 691.703,-667.784 696.347,-663 719.689,-638.95 1266.29,-650.499 1299.35,-645 1305.22,-644.023 1311.34,-642.58 1317.27,-640.941"/>
<polygon fill="black" stroke="black" points="1318.41,-644.252 1327,-638.045 1316.42,-637.543 1318.41,-644.252"/>
<text text-anchor="middle" x="1048.35" y="-666.8" font-family="Times,serif" font-size="14.00">((!(PP_cooked_dog_bun)) &amp;&amp; (!(PP_raw_dog_grill)) &amp;&amp; (!(apply_condiment)) &amp;&amp; (!(customer)) &amp;&amp; (serve) &amp;&amp; (!(wait_2)))</text>
</g>
<!-- T0_S8&#45;&gt;T0_S8 -->
<g id="edge67" class="edge"><title>T0_S8&#45;&gt;T0_S8</title>
<path fill="none" stroke="black" d="M1746.58,-721.858C1758.21,-722.115 1767.79,-719.496 1767.79,-714 1767.79,-710.221 1763.27,-707.803 1756.65,-706.744"/>
<polygon fill="black" stroke="black" points="1756.77,-703.244 1746.58,-706.142 1756.35,-710.232 1756.77,-703.244"/>
<text text-anchor="middle" x="2113.29" y="-710.3" font-family="Times,serif" font-size="14.00">((!(PP_cooked_dog_bun)) &amp;&amp; (!(PP_raw_dog_grill)) &amp;&amp; (!(apply_condiment)) &amp;&amp; (customer) &amp;&amp; (serve) &amp;&amp; (!(wait_2)))</text>
</g>
<!-- T0_S6&#45;&gt;T0_S5 -->
<g id="edge73" class="edge"><title>T0_S6&#45;&gt;T0_S5</title>
<path fill="none" stroke="black" d="M2810.9,-911.913C2811.37,-895.294 2809.04,-870.746 2793.35,-858 2767.84,-837.279 1643.17,-841.609 1610.35,-840 1417.03,-830.522 1369.63,-814.187 1176.35,-804 1154.21,-802.833 393.847,-801.854 378.347,-786 367.161,-774.559 367.448,-761.714 378.347,-750 416.135,-709.382 578.501,-758.304 627.347,-732 661.393,-713.666 645.975,-680.717 680.347,-663 729.661,-637.581 1127.44,-664.602 1179.35,-645 1223.37,-628.374 1263.44,-589.925 1286.34,-564.724"/>
<polygon fill="black" stroke="black" points="1289.13,-566.853 1293.16,-557.052 1283.9,-562.204 1289.13,-566.853"/>
<text text-anchor="middle" x="916.347" y="-710.3" font-family="Times,serif" font-size="14.00">((PP_cooked_dog_bun) &amp;&amp; (apply_condiment) &amp;&amp; (customer) &amp;&amp; (!(serve)) &amp;&amp; (!(wait_2)))</text>
</g>
<!-- T0_S6&#45;&gt;T0_S4 -->
<g id="edge74" class="edge"><title>T0_S6&#45;&gt;T0_S4</title>
<path fill="none" stroke="black" d="M2833.35,-916.849C2841.92,-911.169 2850.62,-903.53 2855.35,-894 2862.45,-879.664 2866.23,-869.724 2855.35,-858 2836.92,-838.161 2638.09,-848.381 2612.35,-840 2583.5,-830.608 2583.43,-812.639 2554.35,-804 2510.72,-791.041 1767.17,-818.533 1735.35,-786 1724.16,-774.563 1724.17,-761.445 1735.35,-750 1750.3,-734.696 2484.02,-733.666 2505.35,-732 2626.04,-722.571 2655.02,-709.324 2775.35,-696 2797.96,-693.496 2962.76,-693.581 2979.35,-678 2990.16,-667.843 2983.23,-659.792 2984.35,-645 2985.55,-629.045 2995.42,-620.546 2984.35,-609 2951.01,-574.251 2584.68,-625.749 2551.35,-591 2546.73,-586.189 2546.72,-580.798 2551.35,-576 2589.94,-535.99 3012.75,-598.01 3051.35,-558 3062.45,-546.485 3060.44,-535.168 3051.35,-522 3027.86,-487.965 3004.87,-497.227 2964.35,-489 2794.19,-454.457 2250.23,-453.337 2089.49,-453.789"/>
<polygon fill="black" stroke="black" points="2089.01,-450.29 2079.02,-453.822 2089.04,-457.29 2089.01,-450.29"/>
<text text-anchor="middle" x="3255.35" y="-666.8" font-family="Times,serif" font-size="14.00">((PP_cooked_dog_bun) &amp;&amp; (apply_condiment) &amp;&amp; (!(customer)) &amp;&amp; (!(serve)) &amp;&amp; (!(wait_2)))</text>
</g>
<!-- T0_S6&#45;&gt;trap -->
<g id="edge76" class="edge"><title>T0_S6&#45;&gt;trap</title>
<path fill="none" stroke="black" d="M2843.65,-928.145C2962.91,-925.009 3353.21,-913.302 3371.35,-894 3382.3,-882.34 3382.34,-869.62 3371.35,-858 3346.33,-831.572 3080.59,-843.282 3044.35,-840 2917.19,-828.484 2886.63,-814.012 2759.35,-804 2727.54,-801.498 2207.55,-808.911 2185.35,-786 2174.21,-774.51 2174.16,-761.436 2185.35,-750 2201.5,-733.498 2993.55,-735.653 3016.35,-732 3070.49,-723.325 3080.28,-705.118 3134.35,-696 3160.28,-691.627 3589.11,-696.945 3607.35,-678 3611.97,-673.197 3610.95,-668.61 3607.35,-663 3576.18,-614.468 3545.34,-622.817 3489.35,-609 3453.8,-600.229 3185.52,-617.585 3160.35,-591 3155.76,-586.159 3155.75,-580.829 3160.35,-576 3188.34,-546.589 3497.35,-587.411 3525.35,-558 3547.84,-534.375 3525.55,-509.702 3500.35,-489 3441.38,-440.572 3299.05,-456.605 3352.35,-402 3381.07,-372.57 4053.56,-397.674 4092.35,-384 4117.16,-375.25 4115.03,-358.044 4139.35,-348 4196.52,-324.389 4217.02,-343.646 4277.35,-330 4298.32,-325.256 4302.13,-318.51 4323.35,-315 4362.13,-308.583 5710.73,-324.972 5738.35,-297 5749.59,-285.615 5749.53,-272.439 5738.35,-261 5706.84,-228.781 4961.72,-272.149 4927.35,-243 4903.55,-222.816 4924.13,-203.633 4914.35,-174 4898.61,-126.339 4887.12,-109.673 4842.35,-87 4765.1,-47.8863 4736.53,-62.3197 4650.35,-54 4338.7,-23.9154 3323.41,-19.6437 3115.68,-19.0807"/>
<polygon fill="black" stroke="black" points="3115.59,-15.5806 3105.58,-19.0546 3115.57,-22.5806 3115.59,-15.5806"/>
<text text-anchor="middle" x="3497.85" y="-449.3" font-family="Times,serif" font-size="14.00">trap_guard</text>
</g>
<!-- T0_S6&#45;&gt;T0_S3 -->
<g id="edge70" class="edge"><title>T0_S6&#45;&gt;T0_S3</title>
<path fill="none" stroke="black" d="M2842.78,-924.755C2861.91,-920.423 2884.41,-911.673 2896.35,-894 2905.3,-880.742 2906.55,-870.325 2896.35,-858 2814.42,-759.026 2740.01,-818.536 2612.35,-804 2407.74,-780.702 2355.1,-794.713 2149.35,-786 2031.39,-781.005 1892.38,-774.459 1822.77,-771.135"/>
<polygon fill="black" stroke="black" points="1822.77,-767.631 1812.61,-770.65 1822.43,-774.623 1822.77,-767.631"/>
<text text-anchor="middle" x="3135.35" y="-872.3" font-family="Times,serif" font-size="14.00">((PP_cooked_dog_bun) &amp;&amp; (!(apply_condiment)) &amp;&amp; (!(customer)) &amp;&amp; (!(serve)))</text>
</g>
<!-- T0_S6&#45;&gt;T0_S7 -->
<g id="edge71" class="edge"><title>T0_S6&#45;&gt;T0_S7</title>
<path fill="none" stroke="black" d="M2825.85,-913.774C2830.86,-908.109 2835.72,-901.275 2838.35,-894 2843.77,-878.948 2849.25,-869.707 2838.35,-858 2819.06,-837.299 2611.9,-846.437 2584.35,-840 2543.2,-830.385 2537.75,-812.429 2496.35,-804 2459.6,-796.519 1172.69,-812.695 1146.35,-786 1135.11,-774.611 1135.11,-761.391 1146.35,-750 1172.12,-723.875 2432.55,-743.67 2467.35,-732 2492.97,-723.406 2490.84,-704.933 2516.35,-696 2563.36,-679.532 2929.83,-713.927 2964.35,-678 2968.97,-673.192 2969.01,-667.765 2964.35,-663 2936.2,-634.236 1655.64,-628.899 1398.89,-628.118"/>
<polygon fill="black" stroke="black" points="1398.82,-624.618 1388.81,-628.088 1398.8,-631.618 1398.82,-624.618"/>
<text text-anchor="middle" x="1422.85" y="-764.3" font-family="Times,serif" font-size="14.00">((!(PP_cooked_dog_bun)) &amp;&amp; (apply_condiment) &amp;&amp; (!(customer)) &amp;&amp; (!(serve)) &amp;&amp; (!(wait_2)))</text>
</g>
<!-- T0_S6&#45;&gt;T0_S8 -->
<g id="edge75" class="edge"><title>T0_S6&#45;&gt;T0_S8</title>
<path fill="none" stroke="black" d="M2819.05,-912.564C2827.16,-896.452 2835.34,-872.29 2821.35,-858 2804.53,-840.83 1980.33,-841.495 1956.35,-840 1802.04,-830.383 1764.59,-814.681 1610.35,-804 1581.51,-802.003 1110.43,-806.79 1090.35,-786 1079.23,-774.492 1079.21,-761.491 1090.35,-750 1112.35,-727.286 1628.14,-737.138 1659.35,-732 1665.38,-731.006 1671.68,-729.539 1677.78,-727.877"/>
<polygon fill="black" stroke="black" points="1679.16,-731.117 1687.77,-724.943 1677.19,-724.401 1679.16,-731.117"/>
<text text-anchor="middle" x="2226.35" y="-818.3" font-family="Times,serif" font-size="14.00">((!(PP_cooked_dog_bun)) &amp;&amp; (apply_condiment) &amp;&amp; (customer) &amp;&amp; (!(serve)) &amp;&amp; (!(wait_2)))</text>
</g>
<!-- T0_S6&#45;&gt;T0_S6 -->
<g id="edge72" class="edge"><title>T0_S6&#45;&gt;T0_S6</title>
<path fill="none" stroke="black" d="M2840.58,-937.858C2852.21,-938.115 2861.79,-935.496 2861.79,-930 2861.79,-926.221 2857.27,-923.803 2850.65,-922.744"/>
<polygon fill="black" stroke="black" points="2850.77,-919.244 2840.58,-922.142 2850.35,-926.232 2850.77,-919.244"/>
<text text-anchor="middle" x="3100.79" y="-926.3" font-family="Times,serif" font-size="14.00">((!(PP_cooked_dog_bun)) &amp;&amp; (!(apply_condiment)) &amp;&amp; (!(customer)) &amp;&amp; (!(serve)))</text>
</g>
</g>
</svg>
