<?xml version="1.0" encoding="UTF-8" standalone="no"?>
<!DOCTYPE svg PUBLIC "-//W3C//DTD SVG 1.1//EN"
 "http://www.w3.org/Graphics/SVG/1.1/DTD/svg11.dtd">
<!-- Generated by graphviz version 2.38.0 (20140413.2041)
 -->
<!-- Pages: 1 -->
<svg width="315pt" height="305pt"
 viewBox="0.00 0.00 314.59 305.00" xmlns="http://www.w3.org/2000/svg" xmlns:xlink="http://www.w3.org/1999/xlink">
<g id="graph0" class="graph" transform="scale(1 1) rotate(0) translate(4 301)">
<polygon fill="white" stroke="none" points="-4,4 -4,-301 310.592,-301 310.592,4 -4,4"/>
<!-- accept_S2 -->
<g id="node1" class="node"><title>accept_S2</title>
<ellipse fill="none" stroke="black" cx="46.7958" cy="-192" rx="46.5926" ry="18"/>
<text text-anchor="middle" x="46.7958" y="-188.3" font-family="Times,serif" font-size="14.00">accept_S2</text>
</g>
<!-- accept_S2&#45;&gt;accept_S2 -->
<g id="edge1" class="edge"><title>accept_S2&#45;&gt;accept_S2</title>
<path fill="none" stroke="black" d="M89.1729,-199.858C101.781,-199.623 111.592,-197.004 111.592,-192 111.592,-188.482 106.741,-186.142 99.4789,-184.982"/>
<polygon fill="black" stroke="black" points="99.4241,-181.466 89.1729,-184.142 98.8558,-188.443 99.4241,-181.466"/>
<text text-anchor="middle" x="160.092" y="-188.3" font-family="Times,serif" font-size="14.00">((!(a)) &amp;&amp; (!(b)))</text>
</g>
<!-- accept_S1 -->
<g id="node3" class="node"><title>accept_S1</title>
<ellipse fill="none" stroke="black" cx="171.796" cy="-105" rx="46.5926" ry="18"/>
<text text-anchor="middle" x="171.796" y="-101.3" font-family="Times,serif" font-size="14.00">accept_S1</text>
</g>
<!-- accept_S2&#45;&gt;accept_S1 -->
<g id="edge2" class="edge"><title>accept_S2&#45;&gt;accept_S1</title>
<path fill="none" stroke="black" d="M89.6254,-184.444C121.349,-178.619 160.744,-169.01 170.796,-156 175.742,-149.599 177.22,-141.234 177.1,-133.183"/>
<polygon fill="black" stroke="black" points="180.563,-132.616 176.178,-122.971 173.591,-133.245 180.563,-132.616"/>
<text text-anchor="middle" x="218.796" y="-144.8" font-family="Times,serif" font-size="14.00">((a) &amp;&amp; (!(b)))</text>
</g>
<!-- trap -->
<g id="node4" class="node"><title>trap</title>
<ellipse fill="none" stroke="black" cx="112.796" cy="-18" rx="27" ry="18"/>
<text text-anchor="middle" x="112.796" y="-14.3" font-family="Times,serif" font-size="14.00">trap</text>
</g>
<!-- accept_S2&#45;&gt;trap -->
<g id="edge3" class="edge"><title>accept_S2&#45;&gt;trap</title>
<path fill="none" stroke="black" d="M45.4482,-173.696C44.4576,-152.435 44.9348,-115.66 56.7958,-87 64.1573,-69.2124 77.8186,-52.4768 89.8046,-40.0592"/>
<polygon fill="black" stroke="black" points="92.3631,-42.4508 96.9798,-32.9147 87.424,-37.4905 92.3631,-42.4508"/>
<text text-anchor="middle" x="86.2958" y="-101.3" font-family="Times,serif" font-size="14.00">trap_guard</text>
</g>
<!-- T0_init -->
<g id="node2" class="node"><title>T0_init</title>
<ellipse fill="none" stroke="black" cx="178.796" cy="-279" rx="36.2938" ry="18"/>
<text text-anchor="middle" x="178.796" y="-275.3" font-family="Times,serif" font-size="14.00">T0_init</text>
</g>
<!-- T0_init&#45;&gt;accept_S2 -->
<g id="edge4" class="edge"><title>T0_init&#45;&gt;accept_S2</title>
<path fill="none" stroke="black" d="M157.588,-264.343C136.169,-250.551 102.832,-229.084 78.3186,-213.299"/>
<polygon fill="black" stroke="black" points="80.0275,-210.236 69.7249,-207.765 76.2376,-216.122 80.0275,-210.236"/>
<text text-anchor="middle" x="135.296" y="-231.8" font-family="Times,serif" font-size="14.00">(!(a))</text>
</g>
<!-- T0_init&#45;&gt;accept_S1 -->
<g id="edge5" class="edge"><title>T0_init&#45;&gt;accept_S1</title>
<path fill="none" stroke="black" d="M199.321,-263.927C233.407,-238.802 295.082,-184.758 264.796,-141 255.615,-127.735 240.731,-119.49 225.536,-114.369"/>
<polygon fill="black" stroke="black" points="226.145,-110.9 215.563,-111.433 224.168,-117.615 226.145,-110.9"/>
<text text-anchor="middle" x="279.796" y="-188.3" font-family="Times,serif" font-size="14.00">(a)</text>
</g>
<!-- accept_S1&#45;&gt;accept_S2 -->
<g id="edge6" class="edge"><title>accept_S1&#45;&gt;accept_S2</title>
<path fill="none" stroke="black" d="M133.818,-115.638C117.024,-121.173 97.7401,-129.384 82.7958,-141 74.2713,-147.626 66.8724,-156.8 61.0366,-165.483"/>
<polygon fill="black" stroke="black" points="57.8993,-163.897 55.5394,-174.226 63.8253,-167.623 57.8993,-163.897"/>
<text text-anchor="middle" x="124.796" y="-144.8" font-family="Times,serif" font-size="14.00">((!(a)) &amp;&amp; (b))</text>
</g>
<!-- accept_S1&#45;&gt;accept_S1 -->
<g id="edge7" class="edge"><title>accept_S1&#45;&gt;accept_S1</title>
<path fill="none" stroke="black" d="M214.173,-112.858C226.781,-112.623 236.592,-110.004 236.592,-105 236.592,-101.482 231.741,-99.1422 224.479,-97.9817"/>
<polygon fill="black" stroke="black" points="224.424,-94.4658 214.173,-97.1423 223.856,-101.443 224.424,-94.4658"/>
<text text-anchor="middle" x="271.592" y="-101.3" font-family="Times,serif" font-size="14.00">((a) &amp;&amp; (b))</text>
</g>
<!-- accept_S1&#45;&gt;trap -->
<g id="edge8" class="edge"><title>accept_S1&#45;&gt;trap</title>
<path fill="none" stroke="black" d="M160.139,-87.2067C151.351,-74.5458 139.179,-57.0093 129.377,-42.8886"/>
<polygon fill="black" stroke="black" points="132.21,-40.8312 123.632,-34.612 126.459,-44.8227 132.21,-40.8312"/>
<text text-anchor="middle" x="176.296" y="-57.8" font-family="Times,serif" font-size="14.00">trap_guard</text>
</g>
<!-- trap&#45;&gt;trap -->
<g id="edge9" class="edge"><title>trap&#45;&gt;trap</title>
<path fill="none" stroke="black" d="M137.328,-25.752C148.304,-26.4902 157.796,-23.9062 157.796,-18 157.796,-14.0317 153.511,-11.5632 147.37,-10.5944"/>
<polygon fill="black" stroke="black" points="147.443,-7.09491 137.328,-10.248 147.202,-14.0908 147.443,-7.09491"/>
<text text-anchor="middle" x="165.796" y="-14.3" font-family="Times,serif" font-size="14.00">(1)</text>
</g>
</g>
</svg>
