<?xml version="1.0" encoding="UTF-8" standalone="no"?>
<!DOCTYPE svg PUBLIC "-//W3C//DTD SVG 1.1//EN"
 "http://www.w3.org/Graphics/SVG/1.1/DTD/svg11.dtd">
<!-- Generated by graphviz version 2.38.0 (20140413.2041)
 -->
<!-- Pages: 1 -->
<svg width="576pt" height="305pt"
 viewBox="0.00 0.00 576.19 305.00" xmlns="http://www.w3.org/2000/svg" xmlns:xlink="http://www.w3.org/1999/xlink">
<g id="graph0" class="graph" transform="scale(1 1) rotate(0) translate(4 301)">
<polygon fill="white" stroke="none" points="-4,4 -4,-301 572.193,-301 572.193,4 -4,4"/>
<!-- accept_S2 -->
<g id="node1" class="node"><title>accept_S2</title>
<ellipse fill="none" stroke="black" cx="46.7958" cy="-105" rx="46.5926" ry="18"/>
<text text-anchor="middle" x="46.7958" y="-101.3" font-family="Times,serif" font-size="14.00">accept_S2</text>
</g>
<!-- accept_S2&#45;&gt;accept_S2 -->
<g id="edge1" class="edge"><title>accept_S2&#45;&gt;accept_S2</title>
<path fill="none" stroke="black" d="M89.1729,-112.858C101.781,-112.623 111.592,-110.004 111.592,-105 111.592,-101.482 106.741,-99.1422 99.4789,-97.9817"/>
<polygon fill="black" stroke="black" points="99.4241,-94.4658 89.1729,-97.1423 98.8558,-101.443 99.4241,-94.4658"/>
<text text-anchor="middle" x="151.092" y="-101.3" font-family="Times,serif" font-size="14.00">(maintain_ori)</text>
</g>
<!-- trap -->
<g id="node4" class="node"><title>trap</title>
<ellipse fill="none" stroke="black" cx="109.796" cy="-18" rx="27" ry="18"/>
<text text-anchor="middle" x="109.796" y="-14.3" font-family="Times,serif" font-size="14.00">trap</text>
</g>
<!-- accept_S2&#45;&gt;trap -->
<g id="edge2" class="edge"><title>accept_S2&#45;&gt;trap</title>
<path fill="none" stroke="black" d="M58.9429,-87.6111C68.359,-74.9069 81.542,-57.1203 92.1259,-42.8404"/>
<polygon fill="black" stroke="black" points="95.1804,-44.5972 98.3231,-34.4791 89.5566,-40.4289 95.1804,-44.5972"/>
<text text-anchor="middle" x="112.296" y="-57.8" font-family="Times,serif" font-size="14.00">trap_guard</text>
</g>
<!-- T0_init -->
<g id="node2" class="node"><title>T0_init</title>
<ellipse fill="none" stroke="black" cx="324.796" cy="-279" rx="36.2938" ry="18"/>
<text text-anchor="middle" x="324.796" y="-275.3" font-family="Times,serif" font-size="14.00">T0_init</text>
</g>
<!-- T0_init&#45;&gt;T0_init -->
<g id="edge3" class="edge"><title>T0_init&#45;&gt;T0_init</title>
<path fill="none" stroke="black" d="M357.725,-286.867C369.551,-287.036 379.193,-284.414 379.193,-279 379.193,-275.278 374.635,-272.875 367.944,-271.792"/>
<polygon fill="black" stroke="black" points="367.93,-268.284 357.725,-271.133 367.479,-275.269 367.93,-268.284"/>
<text text-anchor="middle" x="473.693" y="-275.3" font-family="Times,serif" font-size="14.00">((maintain_ori) &amp;&amp; (!(move_to)))</text>
</g>
<!-- T0_S1 -->
<g id="node3" class="node"><title>T0_S1</title>
<ellipse fill="none" stroke="black" cx="165.796" cy="-192" rx="34.394" ry="18"/>
<text text-anchor="middle" x="165.796" y="-188.3" font-family="Times,serif" font-size="14.00">T0_S1</text>
</g>
<!-- T0_init&#45;&gt;T0_S1 -->
<g id="edge4" class="edge"><title>T0_init&#45;&gt;T0_S1</title>
<path fill="none" stroke="black" d="M296.905,-267.256C281.04,-260.823 260.971,-252.138 243.796,-243 226.744,-233.928 208.528,-222.366 193.991,-212.646"/>
<polygon fill="black" stroke="black" points="195.702,-209.577 185.459,-206.87 191.778,-215.374 195.702,-209.577"/>
<text text-anchor="middle" x="331.296" y="-231.8" font-family="Times,serif" font-size="14.00">((maintain_ori) &amp;&amp; (move_to))</text>
</g>
<!-- T0_init&#45;&gt;trap -->
<g id="edge5" class="edge"><title>T0_init&#45;&gt;trap</title>
<path fill="none" stroke="black" d="M357.904,-271.258C377.231,-266.042 401.197,-257.239 418.796,-243 443.716,-222.837 454.53,-202.469 439.796,-174 382.95,-64.1628 220.64,-31.6968 146.97,-22.4806"/>
<polygon fill="black" stroke="black" points="147.107,-18.9727 136.767,-21.2831 146.291,-25.925 147.107,-18.9727"/>
<text text-anchor="middle" x="457.296" y="-144.8" font-family="Times,serif" font-size="14.00">trap_guard</text>
</g>
<!-- T0_S1&#45;&gt;accept_S2 -->
<g id="edge6" class="edge"><title>T0_S1&#45;&gt;accept_S2</title>
<path fill="none" stroke="black" d="M133.906,-185.069C114.392,-180.078 89.9604,-171.226 72.7958,-156 65.6698,-149.679 60.2034,-140.934 56.165,-132.523"/>
<polygon fill="black" stroke="black" points="59.3699,-131.116 52.2,-123.316 52.9407,-133.885 59.3699,-131.116"/>
<text text-anchor="middle" x="172.296" y="-144.8" font-family="Times,serif" font-size="14.00">((maintain_ori) &amp;&amp; (open_gripper))</text>
</g>
<!-- T0_S1&#45;&gt;T0_S1 -->
<g id="edge7" class="edge"><title>T0_S1&#45;&gt;T0_S1</title>
<path fill="none" stroke="black" d="M197.025,-199.858C208.663,-200.115 218.243,-197.496 218.243,-192 218.243,-188.221 213.715,-185.803 207.103,-184.744"/>
<polygon fill="black" stroke="black" points="207.216,-181.244 197.025,-184.142 206.799,-188.232 207.216,-181.244"/>
<text text-anchor="middle" x="324.743" y="-188.3" font-family="Times,serif" font-size="14.00">((maintain_ori) &amp;&amp; (!(open_gripper)))</text>
</g>
<!-- T0_S1&#45;&gt;trap -->
<g id="edge8" class="edge"><title>T0_S1&#45;&gt;trap</title>
<path fill="none" stroke="black" d="M199.52,-188.263C236.032,-183.706 287.144,-171.772 271.796,-141 264.427,-126.225 180.881,-67.6022 136.749,-37.3207"/>
<polygon fill="black" stroke="black" points="138.456,-34.2478 128.226,-31.4892 134.503,-40.0248 138.456,-34.2478"/>
<text text-anchor="middle" x="283.296" y="-101.3" font-family="Times,serif" font-size="14.00">trap_guard</text>
</g>
<!-- trap&#45;&gt;trap -->
<g id="edge9" class="edge"><title>trap&#45;&gt;trap</title>
<path fill="none" stroke="black" d="M134.328,-25.752C145.304,-26.4902 154.796,-23.9062 154.796,-18 154.796,-14.0317 150.511,-11.5632 144.37,-10.5944"/>
<polygon fill="black" stroke="black" points="144.443,-7.09491 134.328,-10.248 144.202,-14.0908 144.443,-7.09491"/>
<text text-anchor="middle" x="162.796" y="-14.3" font-family="Times,serif" font-size="14.00">(1)</text>
</g>
</g>
</svg>
