<?xml version="1.0" encoding="UTF-8" standalone="no"?>
<!DOCTYPE svg PUBLIC "-//W3C//DTD SVG 1.1//EN"
 "http://www.w3.org/Graphics/SVG/1.1/DTD/svg11.dtd">
<!-- Generated by graphviz version 2.38.0 (20140413.2041)
 -->
<!-- Pages: 1 -->
<svg width="818pt" height="392pt"
 viewBox="0.00 0.00 817.80 392.00" xmlns="http://www.w3.org/2000/svg" xmlns:xlink="http://www.w3.org/1999/xlink">
<g id="graph0" class="graph" transform="scale(1 1) rotate(0) translate(4 388)">
<polygon fill="white" stroke="none" points="-4,4 -4,-388 813.796,-388 813.796,4 -4,4"/>
<!-- T0_init -->
<g id="node1" class="node"><title>T0_init</title>
<ellipse fill="none" stroke="black" cx="199.796" cy="-366" rx="36.2938" ry="18"/>
<text text-anchor="middle" x="199.796" y="-362.3" font-family="Times,serif" font-size="14.00">T0_init</text>
</g>
<!-- accept_S2 -->
<g id="node2" class="node"><title>accept_S2</title>
<ellipse fill="none" stroke="black" cx="272.796" cy="-279" rx="46.5926" ry="18"/>
<text text-anchor="middle" x="272.796" y="-275.3" font-family="Times,serif" font-size="14.00">accept_S2</text>
</g>
<!-- T0_init&#45;&gt;accept_S2 -->
<g id="edge1" class="edge"><title>T0_init&#45;&gt;accept_S2</title>
<path fill="none" stroke="black" d="M213.527,-349.012C224.469,-336.271 239.957,-318.237 252.356,-303.8"/>
<polygon fill="black" stroke="black" points="255.018,-306.072 258.878,-296.205 249.708,-301.511 255.018,-306.072"/>
<text text-anchor="middle" x="284.796" y="-318.8" font-family="Times,serif" font-size="14.00">(!(inservezone))</text>
</g>
<!-- accept_S1 -->
<g id="node3" class="node"><title>accept_S1</title>
<ellipse fill="none" stroke="black" cx="46.7958" cy="-192" rx="46.5926" ry="18"/>
<text text-anchor="middle" x="46.7958" y="-188.3" font-family="Times,serif" font-size="14.00">accept_S1</text>
</g>
<!-- T0_init&#45;&gt;accept_S1 -->
<g id="edge2" class="edge"><title>T0_init&#45;&gt;accept_S1</title>
<path fill="none" stroke="black" d="M185.438,-349.313C164.322,-326.189 123.721,-281.525 89.7958,-243 82.4185,-234.622 74.4233,-225.373 67.351,-217.132"/>
<polygon fill="black" stroke="black" points="69.8052,-214.617 60.6433,-209.296 64.4875,-219.169 69.8052,-214.617"/>
<text text-anchor="middle" x="173.796" y="-275.3" font-family="Times,serif" font-size="14.00">(inservezone)</text>
</g>
<!-- accept_S2&#45;&gt;accept_S2 -->
<g id="edge3" class="edge"><title>accept_S2&#45;&gt;accept_S2</title>
<path fill="none" stroke="black" d="M315.173,-286.858C327.781,-286.623 337.592,-284.004 337.592,-279 337.592,-275.482 332.741,-273.142 325.479,-271.982"/>
<polygon fill="black" stroke="black" points="325.424,-268.466 315.173,-271.142 324.856,-275.443 325.424,-268.466"/>
<text text-anchor="middle" x="432.592" y="-275.3" font-family="Times,serif" font-size="14.00">((!(inservezone)) &amp;&amp; (!(moveto)))</text>
</g>
<!-- accept_S2&#45;&gt;accept_S1 -->
<g id="edge4" class="edge"><title>accept_S2&#45;&gt;accept_S1</title>
<path fill="none" stroke="black" d="M228.585,-272.712C196.758,-267.798 153.348,-258.784 117.796,-243 101.745,-235.874 85.6012,-224.881 72.7721,-215.015"/>
<polygon fill="black" stroke="black" points="74.8674,-212.21 64.8545,-208.747 70.5223,-217.698 74.8674,-212.21"/>
<text text-anchor="middle" x="206.296" y="-231.8" font-family="Times,serif" font-size="14.00">((inservezone) &amp;&amp; (!(moveto)))</text>
</g>
<!-- trap -->
<g id="node5" class="node"><title>trap</title>
<ellipse fill="none" stroke="black" cx="556.796" cy="-18" rx="27" ry="18"/>
<text text-anchor="middle" x="556.796" y="-14.3" font-family="Times,serif" font-size="14.00">trap</text>
</g>
<!-- accept_S2&#45;&gt;trap -->
<g id="edge5" class="edge"><title>accept_S2&#45;&gt;trap</title>
<path fill="none" stroke="black" d="M317.744,-273.549C363.157,-268.446 435.09,-258.699 495.796,-243 620.185,-210.831 717.872,-244.79 758.796,-123 768.792,-93.2516 768.499,-73.3552 743.796,-54 720.954,-36.1035 641.372,-26.2856 593.699,-21.8876"/>
<polygon fill="black" stroke="black" points="593.739,-18.3775 583.469,-20.9816 593.121,-25.3502 593.739,-18.3775"/>
<text text-anchor="middle" x="780.296" y="-144.8" font-family="Times,serif" font-size="14.00">trap_guard</text>
</g>
<!-- accept_S1&#45;&gt;accept_S2 -->
<g id="edge7" class="edge"><title>accept_S1&#45;&gt;accept_S2</title>
<path fill="none" stroke="black" d="M93.681,-192.621C158.193,-193.216 269.273,-198.622 294.796,-228 301.14,-235.302 298.936,-244.723 293.989,-253.415"/>
<polygon fill="black" stroke="black" points="291.048,-251.515 288.342,-261.759 296.845,-255.439 291.048,-251.515"/>
<text text-anchor="middle" x="387.296" y="-231.8" font-family="Times,serif" font-size="14.00">((!(inservezone)) &amp;&amp; (moveto))</text>
</g>
<!-- accept_S1&#45;&gt;accept_S1 -->
<g id="edge8" class="edge"><title>accept_S1&#45;&gt;accept_S1</title>
<path fill="none" stroke="black" d="M89.1729,-199.858C101.781,-199.623 111.592,-197.004 111.592,-192 111.592,-188.482 106.741,-186.142 99.4789,-184.982"/>
<polygon fill="black" stroke="black" points="99.4241,-181.466 89.1729,-184.142 98.8558,-188.443 99.4241,-181.466"/>
<text text-anchor="middle" x="193.092" y="-188.3" font-family="Times,serif" font-size="14.00">((inservezone) &amp;&amp; (moveto))</text>
</g>
<!-- T0_S3 -->
<g id="node4" class="node"><title>T0_S3</title>
<ellipse fill="none" stroke="black" cx="157.796" cy="-18" rx="34.394" ry="18"/>
<text text-anchor="middle" x="157.796" y="-14.3" font-family="Times,serif" font-size="14.00">T0_S3</text>
</g>
<!-- accept_S1&#45;&gt;T0_S3 -->
<g id="edge6" class="edge"><title>accept_S1&#45;&gt;T0_S3</title>
<path fill="none" stroke="black" d="M89.8382,-184.708C125.791,-176.933 174.896,-159.874 198.796,-123 215.363,-97.4387 196.205,-64.1293 178.9,-42.1799"/>
<polygon fill="black" stroke="black" points="181.507,-39.8398 172.437,-34.3637 176.112,-44.3006 181.507,-39.8398"/>
<text text-anchor="middle" x="294.296" y="-101.3" font-family="Times,serif" font-size="14.00">((inservezone) &amp;&amp; (!(moveto)))</text>
</g>
<!-- T0_S4 -->
<g id="node6" class="node"><title>T0_S4</title>
<ellipse fill="none" stroke="black" cx="491.796" cy="-105" rx="34.394" ry="18"/>
<text text-anchor="middle" x="491.796" y="-101.3" font-family="Times,serif" font-size="14.00">T0_S4</text>
</g>
<!-- accept_S1&#45;&gt;T0_S4 -->
<g id="edge9" class="edge"><title>accept_S1&#45;&gt;T0_S4</title>
<path fill="none" stroke="black" d="M88.2165,-183.214C142.002,-173.163 238.822,-155.269 321.796,-141 371.051,-132.529 384.03,-133.938 432.796,-123 439.435,-121.511 446.431,-119.707 453.193,-117.839"/>
<polygon fill="black" stroke="black" points="454.207,-121.19 462.865,-115.084 452.289,-114.458 454.207,-121.19"/>
<text text-anchor="middle" x="416.796" y="-144.8" font-family="Times,serif" font-size="14.00">((!(inservezone)) &amp;&amp; (!(moveto)))</text>
</g>
<!-- T0_S3&#45;&gt;accept_S2 -->
<g id="edge11" class="edge"><title>T0_S3&#45;&gt;accept_S2</title>
<path fill="none" stroke="black" d="M191.994,-20.6787C312.736,-26.661 712.435,-46.955 723.796,-54 738.179,-62.919 738.425,-70.6501 742.796,-87 746.928,-102.457 753.551,-111.154 742.796,-123 714.882,-153.745 597.418,-132.379 556.796,-141 536.173,-145.376 532.24,-150.854 511.796,-156 489.05,-161.725 422.901,-156.056 407.796,-174 397.492,-186.24 397.949,-197.389 407.796,-210 428.095,-235.999 459.497,-202.001 479.796,-228 483.899,-233.255 484.099,-237.908 479.796,-243 460.899,-265.36 384.204,-273.44 329.693,-276.357"/>
<polygon fill="black" stroke="black" points="329.267,-272.873 319.451,-276.859 329.61,-279.865 329.267,-272.873"/>
<text text-anchor="middle" x="645.296" y="-144.8" font-family="Times,serif" font-size="14.00">((!(inservezone)) &amp;&amp; (moveto))</text>
</g>
<!-- T0_S3&#45;&gt;accept_S1 -->
<g id="edge12" class="edge"><title>T0_S3&#45;&gt;accept_S1</title>
<path fill="none" stroke="black" d="M126.809,-26.0253C96.5743,-34.7093 52.2378,-52.739 31.7958,-87 17.692,-110.638 25.4254,-142.542 34.1535,-164.755"/>
<polygon fill="black" stroke="black" points="31.0367,-166.371 38.1587,-174.215 37.4827,-163.641 31.0367,-166.371"/>
<text text-anchor="middle" x="113.296" y="-101.3" font-family="Times,serif" font-size="14.00">((inservezone) &amp;&amp; (moveto))</text>
</g>
<!-- T0_S3&#45;&gt;T0_S3 -->
<g id="edge10" class="edge"><title>T0_S3&#45;&gt;T0_S3</title>
<path fill="none" stroke="black" d="M189.025,-25.8577C200.663,-26.1153 210.243,-23.4961 210.243,-18 210.243,-14.2214 205.715,-11.8026 199.103,-10.7436"/>
<polygon fill="black" stroke="black" points="199.216,-7.24419 189.025,-10.1423 198.799,-14.2318 199.216,-7.24419"/>
<text text-anchor="middle" x="298.743" y="-14.3" font-family="Times,serif" font-size="14.00">((inservezone) &amp;&amp; (!(moveto)))</text>
</g>
<!-- T0_S3&#45;&gt;T0_S4 -->
<g id="edge13" class="edge"><title>T0_S3&#45;&gt;T0_S4</title>
<path fill="none" stroke="black" d="M179.692,-32.004C200.557,-43.7367 233.233,-60.4286 263.796,-69 336.526,-89.3974 358.667,-72.488 432.796,-87 439.543,-88.3209 446.636,-90.0554 453.472,-91.9112"/>
<polygon fill="black" stroke="black" points="452.657,-95.3181 463.233,-94.6829 454.569,-88.5843 452.657,-95.3181"/>
<text text-anchor="middle" x="358.796" y="-57.8" font-family="Times,serif" font-size="14.00">((!(inservezone)) &amp;&amp; (!(moveto)))</text>
</g>
<!-- trap&#45;&gt;trap -->
<g id="edge14" class="edge"><title>trap&#45;&gt;trap</title>
<path fill="none" stroke="black" d="M581.328,-25.752C592.304,-26.4902 601.796,-23.9062 601.796,-18 601.796,-14.0317 597.511,-11.5632 591.37,-10.5944"/>
<polygon fill="black" stroke="black" points="591.443,-7.09491 581.328,-10.248 591.202,-14.0908 591.443,-7.09491"/>
<text text-anchor="middle" x="609.796" y="-14.3" font-family="Times,serif" font-size="14.00">(1)</text>
</g>
<!-- T0_S4&#45;&gt;T0_S3 -->
<g id="edge15" class="edge"><title>T0_S4&#45;&gt;T0_S3</title>
<path fill="none" stroke="black" d="M483.623,-87.1715C477.17,-75.8188 467.048,-61.5754 453.796,-54 411.94,-30.0735 274.195,-22.4349 202.326,-20.0494"/>
<polygon fill="black" stroke="black" points="202.324,-16.5478 192.22,-19.7343 202.106,-23.5444 202.324,-16.5478"/>
<text text-anchor="middle" x="559.296" y="-57.8" font-family="Times,serif" font-size="14.00">((inservezone) &amp;&amp; (!(moveto)))</text>
</g>
<!-- T0_S4&#45;&gt;trap -->
<g id="edge16" class="edge"><title>T0_S4&#45;&gt;trap</title>
<path fill="none" stroke="black" d="M525.683,-101.717C569.077,-98.006 640.621,-88.9662 656.796,-69 676.924,-44.154 629.737,-30.5801 593.535,-24.0597"/>
<polygon fill="black" stroke="black" points="593.651,-20.5305 583.21,-22.3309 592.495,-27.4344 593.651,-20.5305"/>
<text text-anchor="middle" x="690.296" y="-57.8" font-family="Times,serif" font-size="14.00">trap_guard</text>
</g>
<!-- T0_S4&#45;&gt;T0_S4 -->
<g id="edge17" class="edge"><title>T0_S4&#45;&gt;T0_S4</title>
<path fill="none" stroke="black" d="M523.025,-112.858C534.663,-113.115 544.243,-110.496 544.243,-105 544.243,-101.221 539.715,-98.8026 533.103,-97.7436"/>
<polygon fill="black" stroke="black" points="533.216,-94.2442 523.025,-97.1423 532.799,-101.232 533.216,-94.2442"/>
<text text-anchor="middle" x="639.243" y="-101.3" font-family="Times,serif" font-size="14.00">((!(inservezone)) &amp;&amp; (!(moveto)))</text>
</g>
</g>
</svg>
