<?xml version="1.0" encoding="UTF-8" standalone="no"?>
<!DOCTYPE svg PUBLIC "-//W3C//DTD SVG 1.1//EN"
 "http://www.w3.org/Graphics/SVG/1.1/DTD/svg11.dtd">
<!-- Generated by graphviz version 2.38.0 (20140413.2041)
 -->
<!-- Pages: 1 -->
<svg width="686pt" height="479pt"
 viewBox="0.00 0.00 686.45 479.00" xmlns="http://www.w3.org/2000/svg" xmlns:xlink="http://www.w3.org/1999/xlink">
<g id="graph0" class="graph" transform="scale(1 1) rotate(0) translate(4 475)">
<polygon fill="white" stroke="none" points="-4,4 -4,-475 682.447,-475 682.447,4 -4,4"/>
<!-- T0_init -->
<g id="node1" class="node"><title>T0_init</title>
<ellipse fill="none" stroke="black" cx="163.447" cy="-453" rx="36.2938" ry="18"/>
<text text-anchor="middle" x="163.447" y="-449.3" font-family="Times,serif" font-size="14.00">T0_init</text>
</g>
<!-- T0_S3 -->
<g id="node2" class="node"><title>T0_S3</title>
<ellipse fill="none" stroke="black" cx="34.4469" cy="-279" rx="34.394" ry="18"/>
<text text-anchor="middle" x="34.4469" y="-275.3" font-family="Times,serif" font-size="14.00">T0_S3</text>
</g>
<!-- T0_init&#45;&gt;T0_S3 -->
<g id="edge1" class="edge"><title>T0_init&#45;&gt;T0_S3</title>
<path fill="none" stroke="black" d="M151.311,-435.819C128.645,-405.598 79.7571,-340.413 52.9538,-304.676"/>
<polygon fill="black" stroke="black" points="55.4447,-302.164 46.6447,-296.264 49.8447,-306.364 55.4447,-302.164"/>
<text text-anchor="middle" x="120.447" y="-362.3" font-family="Times,serif" font-size="14.00">(a)</text>
</g>
<!-- T0_S2 -->
<g id="node3" class="node"><title>T0_S2</title>
<ellipse fill="none" stroke="black" cx="203.447" cy="-366" rx="34.394" ry="18"/>
<text text-anchor="middle" x="203.447" y="-362.3" font-family="Times,serif" font-size="14.00">T0_S2</text>
</g>
<!-- T0_init&#45;&gt;T0_S2 -->
<g id="edge2" class="edge"><title>T0_init&#45;&gt;T0_S2</title>
<path fill="none" stroke="black" d="M171.35,-435.207C176.993,-423.216 184.694,-406.851 191.138,-393.157"/>
<polygon fill="black" stroke="black" points="194.469,-394.297 195.561,-383.758 188.136,-391.316 194.469,-394.297"/>
<text text-anchor="middle" x="200.947" y="-405.8" font-family="Times,serif" font-size="14.00">(!(a))</text>
</g>
<!-- T0_S3&#45;&gt;T0_S3 -->
<g id="edge3" class="edge"><title>T0_S3&#45;&gt;T0_S3</title>
<path fill="none" stroke="black" d="M65.676,-286.858C77.314,-287.115 86.8939,-284.496 86.8939,-279 86.8939,-275.221 82.3659,-272.803 75.7541,-271.744"/>
<polygon fill="black" stroke="black" points="75.8668,-268.244 65.676,-271.142 75.4498,-275.232 75.8668,-268.244"/>
<text text-anchor="middle" x="135.394" y="-275.3" font-family="Times,serif" font-size="14.00">((!(b)) &amp;&amp; (!(c)))</text>
</g>
<!-- T0_S0 -->
<g id="node4" class="node"><title>T0_S0</title>
<ellipse fill="none" stroke="black" cx="310.447" cy="-192" rx="34.394" ry="18"/>
<text text-anchor="middle" x="310.447" y="-188.3" font-family="Times,serif" font-size="14.00">T0_S0</text>
</g>
<!-- T0_S3&#45;&gt;T0_S0 -->
<g id="edge4" class="edge"><title>T0_S3&#45;&gt;T0_S0</title>
<path fill="none" stroke="black" d="M64.7917,-270.436C87.8962,-264.24 120.251,-254.618 147.447,-243 160.071,-237.607 161.578,-232.779 174.447,-228 211.463,-214.255 223.381,-220.493 261.447,-210 265.34,-208.927 269.372,-207.708 273.376,-206.428"/>
<polygon fill="black" stroke="black" points="274.791,-209.645 283.174,-203.165 272.58,-203.004 274.791,-209.645"/>
<text text-anchor="middle" x="216.447" y="-231.8" font-family="Times,serif" font-size="14.00">((!(b)) &amp;&amp; (c))</text>
</g>
<!-- T0_S6 -->
<g id="node6" class="node"><title>T0_S6</title>
<ellipse fill="none" stroke="black" cx="171.447" cy="-192" rx="34.394" ry="18"/>
<text text-anchor="middle" x="171.447" y="-188.3" font-family="Times,serif" font-size="14.00">T0_S6</text>
</g>
<!-- T0_S3&#45;&gt;T0_S6 -->
<g id="edge5" class="edge"><title>T0_S3&#45;&gt;T0_S6</title>
<path fill="none" stroke="black" d="M40.5902,-260.993C45.3081,-250.15 52.829,-236.574 63.4469,-228 66.3229,-225.678 102.926,-214.055 132.734,-204.831"/>
<polygon fill="black" stroke="black" points="133.999,-208.104 142.524,-201.812 131.936,-201.415 133.999,-208.104"/>
<text text-anchor="middle" x="105.447" y="-231.8" font-family="Times,serif" font-size="14.00">((b) &amp;&amp; (!(c)))</text>
</g>
<!-- T0_S8 -->
<g id="node10" class="node"><title>T0_S8</title>
<ellipse fill="none" stroke="black" cx="95.4469" cy="-105" rx="34.394" ry="18"/>
<text text-anchor="middle" x="95.4469" y="-101.3" font-family="Times,serif" font-size="14.00">T0_S8</text>
</g>
<!-- T0_S3&#45;&gt;T0_S8 -->
<g id="edge6" class="edge"><title>T0_S3&#45;&gt;T0_S8</title>
<path fill="none" stroke="black" d="M36.9107,-261.016C40.2758,-240.077 47.2088,-203.627 58.4469,-174 64.0687,-159.18 72.3635,-143.582 79.6752,-131.069"/>
<polygon fill="black" stroke="black" points="82.8731,-132.542 85.0144,-122.166 76.8698,-128.942 82.8731,-132.542"/>
<text text-anchor="middle" x="93.4469" y="-188.3" font-family="Times,serif" font-size="14.00">((b) &amp;&amp; (c))</text>
</g>
<!-- T0_S2&#45;&gt;T0_S3 -->
<g id="edge7" class="edge"><title>T0_S2&#45;&gt;T0_S3</title>
<path fill="none" stroke="black" d="M179.089,-353.096C165.367,-346.363 147.925,-337.763 132.447,-330 110.684,-319.085 86.2979,-306.644 67.2956,-296.902"/>
<polygon fill="black" stroke="black" points="68.6589,-293.668 58.164,-292.216 65.463,-299.895 68.6589,-293.668"/>
<text text-anchor="middle" x="173.947" y="-318.8" font-family="Times,serif" font-size="14.00">((a) &amp;&amp; (!(c)))</text>
</g>
<!-- T0_S2&#45;&gt;T0_S2 -->
<g id="edge8" class="edge"><title>T0_S2&#45;&gt;T0_S2</title>
<path fill="none" stroke="black" d="M234.676,-373.858C246.314,-374.115 255.894,-371.496 255.894,-366 255.894,-362.221 251.366,-359.803 244.754,-358.744"/>
<polygon fill="black" stroke="black" points="244.867,-355.244 234.676,-358.142 244.45,-362.232 244.867,-355.244"/>
<text text-anchor="middle" x="304.394" y="-362.3" font-family="Times,serif" font-size="14.00">((!(a)) &amp;&amp; (!(c)))</text>
</g>
<!-- T0_S2&#45;&gt;T0_S0 -->
<g id="edge9" class="edge"><title>T0_S2&#45;&gt;T0_S0</title>
<path fill="none" stroke="black" d="M213.707,-348.508C232.481,-318.329 272.475,-254.04 294.711,-218.296"/>
<polygon fill="black" stroke="black" points="297.908,-219.782 300.218,-209.442 291.964,-216.084 297.908,-219.782"/>
<text text-anchor="middle" x="303.447" y="-275.3" font-family="Times,serif" font-size="14.00">((a) &amp;&amp; (c))</text>
</g>
<!-- T0_S4 -->
<g id="node8" class="node"><title>T0_S4</title>
<ellipse fill="none" stroke="black" cx="409.447" cy="-279" rx="34.394" ry="18"/>
<text text-anchor="middle" x="409.447" y="-275.3" font-family="Times,serif" font-size="14.00">T0_S4</text>
</g>
<!-- T0_S2&#45;&gt;T0_S4 -->
<g id="edge10" class="edge"><title>T0_S2&#45;&gt;T0_S4</title>
<path fill="none" stroke="black" d="M229.537,-354.235C266.121,-339.139 332.78,-311.635 373.881,-294.675"/>
<polygon fill="black" stroke="black" points="375.335,-297.862 383.244,-290.812 372.665,-291.391 375.335,-297.862"/>
<text text-anchor="middle" x="360.947" y="-318.8" font-family="Times,serif" font-size="14.00">((!(a)) &amp;&amp; (c))</text>
</g>
<!-- T0_S0&#45;&gt;T0_S0 -->
<g id="edge12" class="edge"><title>T0_S0&#45;&gt;T0_S0</title>
<path fill="none" stroke="black" d="M341.676,-199.858C353.314,-200.115 362.894,-197.496 362.894,-192 362.894,-188.221 358.366,-185.803 351.754,-184.744"/>
<polygon fill="black" stroke="black" points="351.867,-181.244 341.676,-184.142 351.45,-188.232 351.867,-181.244"/>
<text text-anchor="middle" x="411.894" y="-188.3" font-family="Times,serif" font-size="14.00">((!(b)) &amp;&amp; (!(d)))</text>
</g>
<!-- accept_all -->
<g id="node7" class="node"><title>accept_all</title>
<ellipse fill="none" stroke="black" cx="183.447" cy="-18" rx="46.2923" ry="18"/>
<text text-anchor="middle" x="183.447" y="-14.3" font-family="Times,serif" font-size="14.00">accept_all</text>
</g>
<!-- T0_S0&#45;&gt;accept_all -->
<g id="edge14" class="edge"><title>T0_S0&#45;&gt;accept_all</title>
<path fill="none" stroke="black" d="M298.499,-174.819C276.242,-144.675 228.3,-79.7458 201.869,-43.9499"/>
<polygon fill="black" stroke="black" points="204.397,-41.4815 195.642,-35.5159 198.766,-45.6395 204.397,-41.4815"/>
<text text-anchor="middle" x="295.947" y="-101.3" font-family="Times,serif" font-size="14.00">((b) &amp;&amp; (d))</text>
</g>
<!-- T0_S9 -->
<g id="node9" class="node"><title>T0_S9</title>
<ellipse fill="none" stroke="black" cx="414.447" cy="-105" rx="34.394" ry="18"/>
<text text-anchor="middle" x="414.447" y="-101.3" font-family="Times,serif" font-size="14.00">T0_S9</text>
</g>
<!-- T0_S0&#45;&gt;T0_S9 -->
<g id="edge11" class="edge"><title>T0_S0&#45;&gt;T0_S9</title>
<path fill="none" stroke="black" d="M327.584,-176.149C339.274,-166.1 355.167,-152.595 369.447,-141 375.257,-136.282 381.562,-131.297 387.562,-126.614"/>
<polygon fill="black" stroke="black" points="389.724,-129.366 395.479,-120.47 385.433,-123.836 389.724,-129.366"/>
<text text-anchor="middle" x="411.947" y="-144.8" font-family="Times,serif" font-size="14.00">((!(b)) &amp;&amp; (d))</text>
</g>
<!-- T0_S0&#45;&gt;T0_S8 -->
<g id="edge13" class="edge"><title>T0_S0&#45;&gt;T0_S8</title>
<path fill="none" stroke="black" d="M283.177,-180.824C276.154,-178.401 268.567,-175.954 261.447,-174 222.95,-163.434 210.432,-171.026 173.447,-156 163.266,-151.864 141.731,-137.898 123.864,-125.775"/>
<polygon fill="black" stroke="black" points="125.683,-122.779 115.453,-120.022 121.732,-128.557 125.683,-122.779"/>
<text text-anchor="middle" x="215.947" y="-144.8" font-family="Times,serif" font-size="14.00">((b) &amp;&amp; (!(d)))</text>
</g>
<!-- T0_S7 -->
<g id="node5" class="node"><title>T0_S7</title>
<ellipse fill="none" stroke="black" cx="513.447" cy="-192" rx="34.394" ry="18"/>
<text text-anchor="middle" x="513.447" y="-188.3" font-family="Times,serif" font-size="14.00">T0_S7</text>
</g>
<!-- T0_S7&#45;&gt;T0_S7 -->
<g id="edge16" class="edge"><title>T0_S7&#45;&gt;T0_S7</title>
<path fill="none" stroke="black" d="M544.676,-199.858C556.314,-200.115 565.894,-197.496 565.894,-192 565.894,-188.221 561.366,-185.803 554.754,-184.744"/>
<polygon fill="black" stroke="black" points="554.867,-181.244 544.676,-184.142 554.45,-188.232 554.867,-181.244"/>
<text text-anchor="middle" x="580.394" y="-188.3" font-family="Times,serif" font-size="14.00">(!(a))</text>
</g>
<!-- T0_S7&#45;&gt;T0_S9 -->
<g id="edge15" class="edge"><title>T0_S7&#45;&gt;T0_S9</title>
<path fill="none" stroke="black" d="M496.202,-176.194C480.541,-162.747 457.25,-142.75 439.529,-127.535"/>
<polygon fill="black" stroke="black" points="441.693,-124.78 431.826,-120.921 437.133,-130.091 441.693,-124.78"/>
<text text-anchor="middle" x="478.447" y="-144.8" font-family="Times,serif" font-size="14.00">(a)</text>
</g>
<!-- T0_S6&#45;&gt;T0_S6 -->
<g id="edge18" class="edge"><title>T0_S6&#45;&gt;T0_S6</title>
<path fill="none" stroke="black" d="M202.676,-199.858C214.314,-200.115 223.894,-197.496 223.894,-192 223.894,-188.221 219.366,-185.803 212.754,-184.744"/>
<polygon fill="black" stroke="black" points="212.867,-181.244 202.676,-184.142 212.45,-188.232 212.867,-181.244"/>
<text text-anchor="middle" x="238.394" y="-188.3" font-family="Times,serif" font-size="14.00">(!(c))</text>
</g>
<!-- T0_S6&#45;&gt;T0_S8 -->
<g id="edge17" class="edge"><title>T0_S6&#45;&gt;T0_S8</title>
<path fill="none" stroke="black" d="M152.584,-176.596C145.293,-170.606 137.118,-163.343 130.447,-156 123.54,-148.397 116.846,-139.383 111.193,-131.116"/>
<polygon fill="black" stroke="black" points="113.951,-128.942 105.507,-122.542 108.117,-132.81 113.951,-128.942"/>
<text text-anchor="middle" x="138.447" y="-144.8" font-family="Times,serif" font-size="14.00">(c)</text>
</g>
<!-- accept_all&#45;&gt;accept_all -->
<g id="edge19" class="edge"><title>accept_all&#45;&gt;accept_all</title>
<path fill="none" stroke="black" d="M225.091,-25.863C237.721,-25.6659 247.593,-23.0449 247.593,-18 247.593,-14.4528 242.712,-12.1039 235.424,-10.9534"/>
<polygon fill="black" stroke="black" points="235.336,-7.43564 225.091,-10.137 234.785,-14.4139 235.336,-7.43564"/>
<text text-anchor="middle" x="255.593" y="-14.3" font-family="Times,serif" font-size="14.00">(1)</text>
</g>
<!-- T0_S4&#45;&gt;T0_S0 -->
<g id="edge21" class="edge"><title>T0_S4&#45;&gt;T0_S0</title>
<path fill="none" stroke="black" d="M383.41,-267.143C371.047,-261.183 356.58,-252.968 345.447,-243 337.596,-235.971 330.563,-226.857 324.897,-218.339"/>
<polygon fill="black" stroke="black" points="327.803,-216.385 319.51,-209.79 321.88,-220.117 327.803,-216.385"/>
<text text-anchor="middle" x="387.447" y="-231.8" font-family="Times,serif" font-size="14.00">((a) &amp;&amp; (!(d)))</text>
</g>
<!-- T0_S4&#45;&gt;T0_S7 -->
<g id="edge22" class="edge"><title>T0_S4&#45;&gt;T0_S7</title>
<path fill="none" stroke="black" d="M427.562,-263.194C444.19,-249.604 469.006,-229.322 487.692,-214.05"/>
<polygon fill="black" stroke="black" points="490.011,-216.675 495.539,-207.636 485.581,-211.255 490.011,-216.675"/>
<text text-anchor="middle" x="510.447" y="-231.8" font-family="Times,serif" font-size="14.00">((!(a)) &amp;&amp; (d))</text>
</g>
<!-- T0_S4&#45;&gt;T0_S4 -->
<g id="edge23" class="edge"><title>T0_S4&#45;&gt;T0_S4</title>
<path fill="none" stroke="black" d="M440.676,-286.858C452.314,-287.115 461.894,-284.496 461.894,-279 461.894,-275.221 457.366,-272.803 450.754,-271.744"/>
<polygon fill="black" stroke="black" points="450.867,-268.244 440.676,-271.142 450.45,-275.232 450.867,-268.244"/>
<text text-anchor="middle" x="510.394" y="-275.3" font-family="Times,serif" font-size="14.00">((!(a)) &amp;&amp; (!(d)))</text>
</g>
<!-- T0_S4&#45;&gt;T0_S9 -->
<g id="edge20" class="edge"><title>T0_S4&#45;&gt;T0_S9</title>
<path fill="none" stroke="black" d="M443.943,-278.619C491.34,-277.285 574.067,-266.527 603.447,-210 635.335,-148.647 522.929,-121.696 457.768,-111.438"/>
<polygon fill="black" stroke="black" points="458.155,-107.956 447.746,-109.932 457.115,-114.879 458.155,-107.956"/>
<text text-anchor="middle" x="643.447" y="-188.3" font-family="Times,serif" font-size="14.00">((a) &amp;&amp; (d))</text>
</g>
<!-- T0_S9&#45;&gt;accept_all -->
<g id="edge25" class="edge"><title>T0_S9&#45;&gt;accept_all</title>
<path fill="none" stroke="black" d="M387.041,-93.9156C347.097,-79.2177 272.546,-51.7852 225.59,-34.5073"/>
<polygon fill="black" stroke="black" points="226.605,-31.1514 216.012,-30.9827 224.188,-37.7207 226.605,-31.1514"/>
<text text-anchor="middle" x="321.447" y="-57.8" font-family="Times,serif" font-size="14.00">(b)</text>
</g>
<!-- T0_S9&#45;&gt;T0_S9 -->
<g id="edge24" class="edge"><title>T0_S9&#45;&gt;T0_S9</title>
<path fill="none" stroke="black" d="M445.676,-112.858C457.314,-113.115 466.894,-110.496 466.894,-105 466.894,-101.221 462.366,-98.8026 455.754,-97.7436"/>
<polygon fill="black" stroke="black" points="455.867,-94.2442 445.676,-97.1423 455.45,-101.232 455.867,-94.2442"/>
<text text-anchor="middle" x="481.894" y="-101.3" font-family="Times,serif" font-size="14.00">(!(b))</text>
</g>
<!-- T0_S8&#45;&gt;accept_all -->
<g id="edge27" class="edge"><title>T0_S8&#45;&gt;accept_all</title>
<path fill="none" stroke="black" d="M111.18,-88.8037C124.567,-75.8726 144.009,-57.0935 159.356,-42.2696"/>
<polygon fill="black" stroke="black" points="162.193,-44.395 166.955,-34.9302 157.33,-39.3602 162.193,-44.395"/>
<text text-anchor="middle" x="153.447" y="-57.8" font-family="Times,serif" font-size="14.00">(d)</text>
</g>
<!-- T0_S8&#45;&gt;T0_S8 -->
<g id="edge26" class="edge"><title>T0_S8&#45;&gt;T0_S8</title>
<path fill="none" stroke="black" d="M126.676,-112.858C138.314,-113.115 147.894,-110.496 147.894,-105 147.894,-101.221 143.366,-98.8026 136.754,-97.7436"/>
<polygon fill="black" stroke="black" points="136.867,-94.2442 126.676,-97.1423 136.45,-101.232 136.867,-94.2442"/>
<text text-anchor="middle" x="162.894" y="-101.3" font-family="Times,serif" font-size="14.00">(!(d))</text>
</g>
</g>
</svg>
